<svg xmlns="http://www.w3.org/2000/svg" width="37" height="9" fill="none" viewBox="0 0 37 9"><path fill="#ffcf27" d="m1.1 7 .1 1.09.25-.02.21-.13zm.87-.07.7-.85zm.37.1-.2-1.08zm.17-.06.52.97zm.17-.08-.44-1zm.35-.04-.76-.8zm.17-.14-.6-.92zm1.06-.02.97.53zm1.07.05.08 1.1zm.34-.2-.44-1.02zm.54.14L6.4 5.6zm.35-.13-.78-.78zm.34-.13.66.89zm.36 0-.93-.58zm.34-.14-.17 1.09zm.18.07-.53.96zm.18.02.38 1.03zm.35-.08.16 1.09zm.18.04-.53.96zm.35-.12-.57.94zm.18.11.56-.95zm.54 0 .05 1.1zm.17-.08-.7-.85zm.17-.08-.24-1.08zm.53-.01-.3 1.05zm.19.08.56-.95zm.18.05.05 1.1zm.17-.02-.15-1.09zm.5-.34.09-1.1zm.72.02-.61-.92zm.18.02.7-.85zm.19.11-.4 1.03zm.34-.11 1 .46zm.17-.1-.66.88zm.18.04.46 1zm.35-.1-.4-1.02zm.37.23.15 1.09zm.52-.21-.85-.7zm.36.04.84.71zm.34-.15-.8.75zm.35 0L14.7 5zm.36.02-.96-.53zm.36-.02.86.68zm.16-.14-.43-1zm.18-.05.18 1.09zm.35.02-.06 1.1zm.18.05.47-1zm.18.02-.23-1.07zm.18.03-.5.98zm.18.02-.37-1.04zm.17-.08.55.96zm.52-.18-.72.83zm.37.2.24 1.07zm.18-.03-.01-1.1zm.18-.02.23 1.08zm.34-.16-.86.7zm.17-.02-.96-.53zm.18 0-.87.66zm.35-.11.67.86zm.35 0-.89-.64zm.17-.12-.13-1.09zm.18.04.5-.98zm.18.05.03-1.1zm.18-.04.5.98zm.17-.05.04 1.1zm.71.06.9.64zm.17-.16-.54-.96zm.17-.08-.32-1.05zm.18.05-.67.88zm.18.04.42 1.01zm.53-.1-.7.85zm.36.05.76-.79zm.52-.11-.32 1.05zm.53-.04.91.62zm.36.08-.32-1.05zm.52-.16.53.96zm.17-.08-.4-1.03zm.19.08-.83.72zm.17-.02-.95-.55zm.7-.14.59.93zm.36.01-.8-.75zm.17-.06-.3 1.06zm.18.01-.18-1.08zm.17-.03.24 1.07zm.14.04.89.65.5-.7-.54-.65zm-.05.07-.9-.65-1.41 1.96 2.4-.22zM1 7l.1 1.1.1-.01-.1-1.1L1 5.9l-.1.01zm.1 0 .56.94q-.15.1-.32.1l-.08-1.1-.08-1.1q-.33.03-.64.2zm.16-.06.08 1.1a1 1 0 0 1-.47-.1l.57-.95.58-.94a1.4 1.4 0 0 0-.84-.2zm.18.05-.57.94a1.2 1.2 0 0 0 1.61-.3l-.86-.68-.87-.68a1 1 0 0 1 1.27-.22zm.18-.04.86.67a.9.9 0 0 1-.75.33l.06-1.1.05-1.1a1.3 1.3 0 0 0-1.09.52zm.17-.1-.06 1.1a1 1 0 0 1-.45-.16l.7-.86.68-.85a1.4 1.4 0 0 0-.82-.33zm.18.08-.7.86c.16.12.37.25.63.31l.26-1.07.25-1.07c.14.03.23.1.25.12zm.19.1L1.9 8.1q.3.08.63.02l-.2-1.08-.2-1.09q.16-.01.28.01zm.18 0 .2 1.09q.26-.05.5-.18l-.53-.97-.53-.96.16-.06zm.17-.06.52.97.09-.04-.44-1-.44-1.02-.26.13zm.17-.08.44 1a1 1 0 0 1-.66.03l.4-1.03.4-1.03a1.3 1.3 0 0 0-1.02.02zm.18 0-.4 1.03a1.3 1.3 0 0 0 1.33-.28l-.76-.8-.76-.79a1 1 0 0 1 .98-.19zm.17-.04.76.8v-.01l-.6-.93-.59-.92q-.18.12-.33.26zm.17-.14.6.93-.15.06-.28-1.06-.29-1.07a2 2 0 0 0-.48.22zm.17-.07.28 1.06a1 1 0 0 1-.97-.27l-.05-.06.93-.6.92-.6a2 2 0 0 0-.38-.4 1.2 1.2 0 0 0-1.02-.2zm.19.13-.93.6q.08.13.27.3a1.16 1.16 0 0 0 1.56-.05q.22-.23.27-.38l-1-.47-.99-.47a1 1 0 0 1 .2-.26A1.04 1.04 0 0 1 4.3 6q.15.13.17.18zm.17 0 1 .47c0 .01-.1.24-.38.4a1 1 0 0 1-1.06-.05l.61-.91.62-.91a1.2 1.2 0 0 0-1.24-.06c-.34.18-.49.48-.54.6zm.17-.1-.61.92q.15.1.31.18l.5-.98.48-.99-.06-.03zm.2.12-.5.98a1.2 1.2 0 0 0 1.62-.55l-.96-.53-.97-.52c.02-.03.12-.21.35-.34a1 1 0 0 1 .94-.03zm.16-.1.97.53c-.02.02-.18.33-.59.45a1 1 0 0 1-.96-.23l.75-.8.76-.8a1.2 1.2 0 0 0-1.9.33zm.17-.05-.75.8c.16.16.46.38.89.4l.05-1.1.05-1.1c.3.01.48.17.52.2zm.19.1-.05 1.1-.09-.02.32-1.05.32-1.05q-.22-.06-.45-.08zm.18.03-.32 1.05q.57.16 1.06-.12l-.56-.95-.56-.95a1 1 0 0 1 .7-.08zm.18-.02.56.95a1 1 0 0 1-.68.08l.3-1.06.28-1.06q-.55-.14-1.02.14zm.17-.03-.29 1.06q.26.08.55.06l-.08-1.1-.08-1.1q.11 0 .2.02zm.18.02.08 1.1c.4-.03.7-.23.87-.41l-.78-.78-.78-.77a1 1 0 0 1 .53-.23zm.17-.09.78.78-.18.11-.43-1-.44-1.02q-.32.16-.51.36zm.17-.12.43 1.01a1 1 0 0 1-.76.01 1 1 0 0 1-.31-.21l.82-.73.83-.73c-.16-.18-.7-.67-1.45-.36zm.18.08-.82.73c.15.17.63.62 1.33.4L6.04 6.7l-.32-1.05a1 1 0 0 1 .69.05 1 1 0 0 1 .27.2zm.19.08.32 1.06a1 1 0 0 1-.32.02l.17-1.09.18-1.08a2 2 0 0 0-.67.04zm.17 0-.17 1.08q.4.06.76-.09l-.4-1.02-.41-1.02a1 1 0 0 1 .41-.04zm.18-.03.41 1.02q.33-.14.53-.35l-.77-.78-.78-.78.2-.13zm.17-.11.77.78a1 1 0 0 1-.74.24l.14-1.1.13-1.09a1.3 1.3 0 0 0-1.08.39zm.17-.07L6.6 7.57c.38.04.71-.08.96-.26l-.66-.89-.65-.88q.08-.07.26-.13a1 1 0 0 1 .35-.03zm.17-.06.66.89a1 1 0 0 1-.77.17 1 1 0 0 1-.47-.23l.76-.8.77-.78a1.2 1.2 0 0 0-.67-.35 1.2 1.2 0 0 0-.93.22zm.18.04-.76.79c.14.14.5.42 1.03.33.5-.08.75-.42.84-.56l-.93-.6-.93-.58A1 1 0 0 1 7 5.4a1 1 0 0 1 .85.26zm.18-.03.93.59-.14.15a1 1 0 0 1-.4.2l-.23-1.08L7.2 5.2c-.49.1-.76.45-.87.63zm.16-.14.23 1.08h-.22l.17-1.09.17-1.08a2 2 0 0 0-.57.01zm.18 0-.17 1.08-.18-.06.53-.96.53-.96a2 2 0 0 0-.54-.2zm.18.06-.53.96c.3.16.69.24 1.1.1l-.39-1.04-.38-1.03a1 1 0 0 1 .73.05zm.18.02.38 1.03h.02l-.22-1.08-.22-1.08-.34.1zm.18-.05.22 1.08.1-.02-.15-1.1-.15-1.08-.24.04zm.17-.03.16 1.09a1 1 0 0 1-.51-.1l.53-.95.54-.96a1.4 1.4 0 0 0-.87-.17zm.18.04-.53.96a1.2 1.2 0 0 0 1.6-.4l-.9-.62-.9-.63a1 1 0 0 1 .45-.34 1 1 0 0 1 .82.07zm.17-.06.9.62a1 1 0 0 1-1.3.26l.58-.94.56-.94a1.2 1.2 0 0 0-1.64.37zm.18-.06-.57.94.2.12.55-.95.56-.95-.18-.1zm.18.11-.55.95a1.24 1.24 0 0 0 1.5-.2L9.2 6.3l-.77-.78a1 1 0 0 1 1.15-.14zm.18-.03.77.79a1 1 0 0 1-1.15.14l.56-.95.55-.96a1.24 1.24 0 0 0-1.5.2zm.18-.02-.55.95q.3.2.78.2l-.05-1.1-.06-1.1q.3 0 .43.1zm.18.05.05 1.1c.34-.02.61-.16.81-.32l-.7-.86-.68-.85a1 1 0 0 1 .46-.17zm.17-.08.69.86a1 1 0 0 1-.28.13L9.9 6.16l-.24-1.08q-.38.1-.62.3zm.17-.08.24 1.07a1 1 0 0 1-.49-.04l.43-1.01.42-1.02a1.4 1.4 0 0 0-.84-.08zm.18.02-.43 1.01c.37.16.79.14 1.15-.07l-.54-.95-.55-.96a.9.9 0 0 1 .8-.05zm.18-.01.54.95a1 1 0 0 1-.67.08l.3-1.05.3-1.06c-.35-.1-.72-.05-1.02.12zm.17-.02-.3 1.05-.08-.03.57-.94.56-.95a2 2 0 0 0-.45-.2zm.19.08-.57.94c.2.12.48.22.8.2l-.05-1.1-.05-1.09q.3.02.43.1zm.18.05.05 1.1q.14 0 .28-.03l-.16-1.09-.15-1.09-.07.01zm.17-.02.16 1.1q.18-.03.36-.1l-.34-1.04-.34-1.04h.01zm.18-.04.34 1.05c.46-.15.7-.52.79-.68l-.97-.53-.96-.53.1-.13a1 1 0 0 1 .36-.22zm.16-.16.97.53a1 1 0 0 1-.2.22 1 1 0 0 1-.69.2l.09-1.09.08-1.1c-.75-.05-1.12.54-1.21.7zm.17-.14-.09 1.1.18.01.09-1.1.08-1.09-.18-.01zm.18.02-.09 1.1q.33.02.63-.1l-.37-1.03-.37-1.03a1 1 0 0 1 .28-.04zm.17-.03.37 1.04a1 1 0 0 1-.75-.07l.56-.94.56-.95a1.3 1.3 0 0 0-1.1-.11zm.18.03-.56.94c.17.1.39.19.66.19q.41-.02.7-.22l-.62-.91-.61-.92a1 1 0 0 1 1-.03zm.18 0 .61.91a1 1 0 0 1-1.13-.04l.7-.85.7-.85a1.2 1.2 0 0 0-1.5-.09zm.18.02-.7.85q.2.16.5.3l.39-1.04.4-1.02.11.06zm.19.11-.4 1.03q.24.1.54.11l.04-1.1.04-1.1q.1 0 .17.04zm.18.04-.04 1.1c.4.02.7-.17.89-.34.16-.16.26-.34.31-.45l-1-.46-1-.47s.05-.1.16-.2a1 1 0 0 1 .72-.28zm.16-.15 1 .46s-.1.25-.4.4a1 1 0 0 1-1.1-.08l.67-.87.67-.88a1.2 1.2 0 0 0-1.27-.11c-.36.19-.52.5-.57.61zm.17-.1-.66.88c.28.22.77.4 1.3.16l-.46-1-.46-1a1 1 0 0 1 .95.09zm.18.04.46 1-.14.04-.14-1.1-.15-1.08q-.26.03-.49.14zm.18-.05.14 1.09q.22-.04.42-.1l-.4-1.04-.38-1.02.07-.02zm.17-.05.39 1.03a1 1 0 0 1-.83-.05c-.16-.1-.24-.2-.26-.22l.89-.65.88-.66c-.08-.1-.23-.28-.45-.4a1.2 1.2 0 0 0-1.01-.07zm.19.1-.89.66c.1.13.51.65 1.22.56l-.15-1.1-.14-1.08c.3-.04.53.06.65.14q.18.14.19.17zm.18.13.15 1.09q.27-.04.5-.15l-.47-1-.47-.99.15-.04zm.18-.05.47 1-.17.04-.13-1.1-.13-1.09q-.27.05-.51.15zm.17-.05.13 1.09c.44-.05.73-.3.89-.5l-.85-.7-.85-.7a1 1 0 0 1 .55-.29zm.17-.11.85.7a1 1 0 0 1-1.51.03l.84-.71.84-.71a1.2 1.2 0 0 0-1.87 0zm.18.02-.84.71a1.2 1.2 0 0 0 1.86.02l-.84-.7-.84-.72a1 1 0 0 1 1.5-.02zm.18.02.84.71.1-.1-.78-.79-.78-.78-.22.25zm.16-.18.78.78a1 1 0 0 1-1.4 0l.8-.75.8-.75a1.2 1.2 0 0 0-1.76-.05zm.18.03-.8.75c.15.16.5.48 1.05.45l-.06-1.1-.07-1.1c.43-.02.66.22.68.25zm.19.1.06 1.1c.48-.03.8-.31.96-.5l-.86-.7-.85-.7a1 1 0 0 1 .62-.3zm.16-.1.86.7c-.12.14-.46.43-.97.33a1 1 0 0 1-.58-.34l.88-.66.87-.67a1.3 1.3 0 0 0-.77-.49c-.57-.1-.96.22-1.14.43zm.19.03-.88.66c.07.1.4.53 1.02.5a1.2 1.2 0 0 0 1-.64l-.97-.53-.96-.53a1 1 0 0 1 .83-.5c.55-.02.83.37.83.37zm.17 0 .97.52c-.02.03-.22.4-.72.48a1 1 0 0 1-.9-.3l.83-.74.82-.72a1.2 1.2 0 0 0-1.08-.41c-.56.09-.82.51-.88.63zm.18-.04-.83.73c.1.12.4.4.86.43.54.03.87-.3 1.02-.47l-.87-.68-.87-.67a1 1 0 0 1 1.51-.06zm.18.01.86.68a1 1 0 0 1-.26.2l-.44-1.02-.43-1c-.28.11-.48.3-.6.47zm.16-.14.44 1.02-.08.02-.18-1.09-.19-1.08q-.22.04-.42.12zm.18-.05.18 1.09h-.16l.15-1.09.16-1.09a2 2 0 0 0-.52 0zm.17 0-.15 1.09.27.03.06-1.1.07-1.1h-.1zm.18.02-.06 1.1-.22-.06.46-1 .47-.99a2 2 0 0 0-.58-.15zm.18.05-.46 1c.24.1.55.17.87.1l-.23-1.08-.23-1.07c.21-.05.4 0 .52.05zm.18.02.23 1.08a1 1 0 0 1-.55-.07l.5-.98.5-.98c-.24-.12-.56-.2-.9-.12zm.18.03-.5.98c.3.15.67.21 1.05.07l-.37-1.03-.37-1.04a1 1 0 0 1 .7.04zm.18.02.37 1.03.35-.15-.55-.96-.54-.96zm.17-.08.55.96q.25-.16.43-.35L18 5.44l-.8-.74.1-.08zm.17-.14.8.75a1 1 0 0 1-.37.21l-.26-1.07-.27-1.06c-.32.08-.56.26-.7.43zm.17-.1.26 1.06a1 1 0 0 1-.52-.02 1 1 0 0 1-.28-.15l.72-.83.72-.84a1.3 1.3 0 0 0-1.17-.3zm.18.06-.72.83.27.21.64-.9.64-.9-.11-.08zm.2.15-.65.9c.24.16.61.32 1.06.22l-.24-1.08-.24-1.07a1 1 0 0 1 .7.13zm.17.04.24 1.08h-.05l-.01-1.1-.01-1.1q-.2 0-.4.05zm.18-.02.01 1.1q.2 0 .4-.04l-.23-1.08-.24-1.07h.05zm.18-.02.23 1.08c.52-.12.78-.5.88-.68l-.95-.55-.95-.55.12-.15a1 1 0 0 1 .43-.22zm.16-.15.95.55a1 1 0 0 1-.8.48c-.52.03-.8-.32-.83-.35l.86-.7.85-.69c-.09-.1-.43-.5-1.02-.46s-.89.49-.96.62zm.18-.01-.86.7c.1.1.45.5 1.05.45.6-.06.88-.52.95-.64l-.97-.53-.96-.53a1 1 0 0 1 .78-.49c.54-.05.84.32.86.34zm.17-.02.97.53c-.02.03-.25.47-.83.5-.55.03-.82-.36-.83-.37l.87-.67.87-.67a1.2 1.2 0 0 0-1.02-.49 1.2 1.2 0 0 0-.99.64zm.18 0-.87.66a1.2 1.2 0 0 0 1.85.13l-.8-.75-.8-.76q.11-.13.38-.25.3-.1.6-.03c.33.08.5.3.51.32zm.18.04.8.76.04-.05-.67-.86-.68-.87-.29.26zm.17-.15.67.86a1 1 0 0 1-1.24-.03l.75-.8.74-.81a1.2 1.2 0 0 0-1.6-.09zm.18.02-.75.8c.15.15.48.39.96.34.47-.06.74-.36.85-.51l-.89-.65-.89-.64a1 1 0 0 1 .69-.4c.42-.04.69.18.77.26zm.17-.02.9.65a1 1 0 0 1-.6.33l-.13-1.1-.13-1.09c-.5.06-.79.37-.93.57zm.17-.12.13 1.1a1 1 0 0 1-.45-.08l.5-.98.5-.98a1.4 1.4 0 0 0-.81-.15zm.18.04-.5.98q.27.15.66.17l.02-1.1.03-1.1q.2.01.3.07zm.18.05L21 6.33q.38 0 .7-.16l-.5-.98-.5-.98q.14-.08.35-.08zm.18-.04.5.98a1 1 0 0 1-.29.07l-.04-1.1-.04-1.1q-.35.02-.63.17zm.17-.05.04 1.1a1 1 0 0 1-.54-.16l.68-.87.69-.86c-.2-.15-.5-.32-.91-.3zm.18.07-.68.87c.18.14.5.31.91.26s.67-.3.8-.45l-.85-.7-.85-.7a1 1 0 0 1 .63-.33c.36-.05.61.1.73.2zm.18-.02.85.7a1 1 0 0 1-1.48.06l.8-.75.81-.75a1.2 1.2 0 0 0-1.83.05zm.18.01-.8.75c.11.13.43.41.92.4.52-.01.83-.34.94-.5l-.89-.65-.89-.65a1 1 0 0 1 .78-.4c.44-.01.69.24.74.3zm.17 0 .9.64q-.01.04-.2.16l-.53-.96-.54-.96q-.35.21-.52.47zm.17-.16.53.96-.04.02-.32-1.06-.32-1.05q-.21.06-.39.17zm.17-.08.32 1.06a1 1 0 0 1-.5 0 1 1 0 0 1-.3-.13l.66-.88.67-.87a1.3 1.3 0 0 0-1.17-.23zm.18.05-.67.88c.27.2.75.4 1.27.17l-.42-1.01-.42-1.02q.27-.1.56-.05.26.07.35.16zm.18.04.42 1.01a1 1 0 0 1-.58.05 1 1 0 0 1-.35-.16l.7-.86.68-.86a1.3 1.3 0 0 0-1.29-.2zm.18.04-.69.86a1.2 1.2 0 0 0 1.84-.42l-.97-.5-.98-.52c.01-.02.14-.28.49-.42a1 1 0 0 1 1 .14zm.18-.07.97.51c-.01.02-.14.3-.5.43a1 1 0 0 1-1-.16l.7-.84.7-.85a1.2 1.2 0 0 0-1.85.4zm.17-.06-.7.84c.13.12.37.26.68.3.35.03.64-.09.85-.24l-.65-.89-.66-.88a1 1 0 0 1 1.18.02zm.18.01.65.89a1 1 0 0 1-.76.17 1 1 0 0 1-.48-.24l.77-.79.76-.79a1.3 1.3 0 0 0-.66-.34 1.2 1.2 0 0 0-.94.22zm.18.03-.77.8c.18.16.55.44 1.07.38l-.12-1.1L23.72 4c.4-.05.66.17.7.21zm.18.09.12 1.1c.5-.06.8-.38.94-.58l-.9-.64-.88-.64a1 1 0 0 1 .6-.33zm.17-.12.9.64a1 1 0 0 1-.34.28 1 1 0 0 1-.71.05l.32-1.05.32-1.05q-.45-.14-.88.06c-.25.12-.41.3-.5.43zm.17-.08-.32 1.05.02.01.48-.99.49-.99q-.17-.08-.35-.13zm.18.07-.48.99c.25.12.56.19.9.11L24.54 5l-.23-1.08c.22-.05.41 0 .54.06zm.18.03.24 1.07c.45-.1.72-.4.84-.59l-.91-.62-.91-.62a1 1 0 0 1 .5-.32zm.17-.14.91.62a1 1 0 0 1-.8.42 1 1 0 0 1-.75-.31l.82-.73.82-.74a1.3 1.3 0 0 0-.95-.42 1.2 1.2 0 0 0-.96.54zm.18 0-.82.73c.15.17.63.61 1.32.4l-.32-1.05-.32-1.05a1 1 0 0 1 .69.04c.15.07.24.17.27.2zm.18.08.32 1.05-.08.02-.06-1.1-.07-1.1q-.23.02-.43.08zm.18-.03L25.3 6q.3-.02.56-.14l-.45-1-.45-1 .21-.06zm.17-.04.45 1 .25-.13-.53-.96-.53-.96-.09.04zm.17-.09.53.96.04-.01-.4-1.03-.4-1.03-.3.15zm.17-.08.4 1.03a1 1 0 0 1-.75-.02 1 1 0 0 1-.3-.2l.84-.73.82-.72c-.15-.18-.67-.67-1.4-.39zm.19.08-.83.72a1.18 1.18 0 0 0 1.95-.19l-.95-.55-.95-.55a1 1 0 0 1 .74-.47 1 1 0 0 1 .86.32zm.17-.02.96.55c-.03.03-.26.44-.8.47a1 1 0 0 1-.83-.34l.85-.7.85-.7c-.09-.1-.44-.5-1.03-.45s-.88.5-.95.62zm.18-.01-.85.7c.09.1.33.36.73.44.5.1.9-.14 1.1-.35l-.8-.76-.8-.76c.15-.15.48-.37.93-.28.34.06.51.28.54.3zm.18.03.8.76a1 1 0 0 1-.48.23l-.15-1.09-.15-1.09c-.38.06-.65.26-.82.43zm.17-.1.15 1.1q.34-.06.6-.23l-.58-.93-.58-.93.26-.1zm.17-.06.59.93a1 1 0 0 1-1.09-.04l.68-.87.68-.86a1.2 1.2 0 0 0-.64-.27q-.46-.04-.8.18zm.18.02-.68.87a1.23 1.23 0 0 0 1.66-.12l-.8-.76-.8-.75a.97.97 0 0 1 1.3-.1zm.18-.01.8.75a1 1 0 0 1-.94.24l.3-1.05.32-1.06c-.57-.16-1.03.1-1.29.37zm.17-.06-.3 1.06q.3.1.65.04l-.17-1.09-.18-1.08a1 1 0 0 1 .3.01zm.18.01.17 1.09.24-.05-.24-1.07-.24-1.08-.1.03zm.17-.03.24 1.07a1 1 0 0 1-.95-.33l.85-.7.85-.7a1.2 1.2 0 0 0-1.23-.42zm.14.04-.9-.65-.04.07.89.65.89.65.05-.07zm-.05.07.1 1.1.1-.01-.1-1.1-.1-1.1-.1.01z"/><path stroke="#ffcf27" stroke-linecap="round" stroke-width="2" d="M25.98 1.17q.74 3.27.77 3.94.11.82.27 1.35l.16.7"/><path stroke="#ffcf27" stroke-linecap="round" stroke-width="3" d="M26.98 1.72c5.98 1.7 7.38 1.8 7.94 1.9.49.08-1.3.4-1.97.8a30 30 0 0 0-3.82 2.44c-.3.25-.4.4-.66.55"/></svg>