<svg xmlns="http://www.w3.org/2000/svg" width="24" height="25" fill="none" viewBox="0 0 24 25"><g fill="#000" fill-rule="evenodd" clip-path="url(#a)" clip-rule="evenodd"><path d="M23.8 10.46a8 8 0 0 0-1.53-2.63 4 4 0 0 0-1.1-.54c0-.35.14-1 .1-1.34a5.6 5.6 0 0 0-1.43-3.15c-.95-1-3.25-1.66-4.6-.54-.08.07 0 0-.12-.3C14.45.35 11 .1 8.79 2.77q-.33.6-.45 1.29a3.52 3.52 0 0 0-5 1.9 1.5 1.5 0 0 0 0 1.74c-2.2.73-3.71 3.9-3.26 6.16a5 5 0 0 0 2.82 3.27c-1.06 1.67-.44 4.19 2 5.47 1.71.83 3.67 1 5.5.5a7 7 0 0 0 1.14-.7c1 1.78 3.83 1.73 5.88.83a6.3 6.3 0 0 0 3.63-6c0-.31-.1-.25 0-.28 1.6-.52 3.58-3.65 2.76-6.48m-1.08 2.83A5.4 5.4 0 0 1 21 15.8c-.63.2-.41.16-.85.16s-.6.55-.6.55q0 .24.18.42c1 1-.6 5.57-4.85 5.76-2.27.1-2.3-1.06-2.76-1.56a.7.7 0 0 0-.85 0c-1.27.92-2.41 1.77-5.27.74-2.35-.84-3-2.9-2.23-4.22a2 2 0 0 0 .63-.22.63.63 0 0 0 .19-.95c-.21-.23-.41-.2-.71-.13a3 3 0 0 1-2.15-1.25q-.54-.62-.73-1.42C.49 11.56 2.18 8.3 4.32 8.3a.38.38 0 0 0 .14-.74l-.3-.08c-.5-.36-.43-.71-.16-1.18a2.84 2.84 0 0 1 3.5-1.91c1.33.35 1.18.67 1.2.67a.3.3 0 0 0 .37-.2 2 2 0 0 1 .26-1.63c1.74-2 4.21-2.1 5-1.07.21.27.15.77.42 1.07a.5.5 0 0 0 .59 0A2.2 2.2 0 0 1 18 2.67a3 3 0 0 1 2 1.94c.37.84.45 1.78.23 2.68 0 .77.36.74 1.3 1.16 1.28 1.59 1.79 2.89 1.2 4.84"/><path d="M14.34 12.03c-1.31-.9-2.73-.57-3.93-1.32-.27-.16-.48-.26-.47-.58q.03-.33.18-.63c.79-1.63 4-1.48 4.37-.7a.3.3 0 1 0 .5-.24 1.7 1.7 0 0 0-1.4-.93q-.4-.09-.8-.12a2 2 0 0 0-.16-1.61.3.3 0 0 0-.3-.31c-.27 0-.82 1-.43 1.92a3 3 0 0 0-3 2.56 1.6 1.6 0 0 0 .9 1.59c1.36.87 2.76.55 3.9 1.32.4.26.83.89.64 1.33-.58 1.34-2.8 1.58-3.93 1-.25-.13-1.07-.58-1-.86a.34.34 0 0 0-.67-.12c-.15.69.7 1.3 1.32 1.66q.77.4 1.64.45a2.6 2.6 0 0 0 .49 2.34.34.34 0 0 0 .4-.27 3.3 3.3 0 0 0 0-2.08c2.83-.25 3.86-2.92 1.75-4.4"/></g><defs><clipPath id="a"><path fill="#fff" d="M0 .29h24v24H0z"/></clipPath></defs></svg>