<svg xmlns="http://www.w3.org/2000/svg" width="489" height="378" fill="none" viewBox="0 0 489 378"><path fill="#ffcf27" d="M488.9 120.82a28 28 0 0 0-1.92-7.34 51 51 0 0 1-3.42-18.94c0-5.07-.26-10.13-.68-15.19-.8-9.55-2.47-18.87-6.45-27.69a57 57 0 0 1-3.31-10.06 44 44 0 0 0-2.26-7 16 16 0 0 0-3.97-5.6 10.6 10.6 0 0 0-9.36-2.78 26 26 0 0 0-8.97 3.48c-3.4 2-6.95 3.58-10.74 4.67-13.42 3.85-25.26 10.8-36.28 19.15-9.19 6.96-18.44 13.83-28.1 20.13a82 82 0 0 0-9.65 7.08c-1.32 1.17-2.7 2.3-3.46 3.96-.38.84-1.1.98-1.85 1.16-3 .72-5.97 1.5-8.97 2.15-7.74 1.7-15.5 3.26-23.5 2.62q-3.23-.15-6.45-.34c-3.76-.24-7.36.33-10.78 1.92-4.32 2-7.88 5.03-11.15 8.43-.96 1-1.66 2.2-2.19 3.5a5.7 5.7 0 0 1-1.65 2.45c-.97.78-1.53 1.74-1.1 3.02.42 1.23 1.42 1.8 2.62 1.97 1.83.27 3.68.28 5.52.17.77-.05 1.61-.27 2.29-.03 2.87.98 5.78.48 8.68.41.85-.02 1.8 0 2.46-.5 1.4-1.04 3.02-.99 4.61-1.18q1.72-.18 3.43-.4c9-1.3 17.44-4.3 25.38-8.68 1.68-.92 2.88-.75 4.43.15 3.38 1.96 6.09 4.65 8.6 7.58 4.09 4.8 8.2 9.57 12.63 14.06 2.24 2.27 4.35 4.53 4.56 7.95.02.45.26.88.42 1.31 1.35 3.76 2.67 7.54 4.08 11.27.67 1.74 1.08 3.5 1.4 5.33 1.34 7.32 1.37 14.68.78 22.05-.73 9.07-2.83 17.74-7.6 25.62-.38.65-.67 1.38-.9 2.1a2.6 2.6 0 0 1-1.6 1.8c-1.53.7-1.79 1.95-.88 3.38a5 5 0 0 0 1.9 1.65q1.32.73 2.8 1.05c.7.14 1.27.37 1.52 1.17.47 1.51 1.72 1.85 3.1 1.84a13.6 13.6 0 0 0 7.03-1.93c.79-.48 1.56-1.02 2.4-1.37 6.7-2.77 12.4-7.01 17.83-11.72 5.47-4.74 10.31-10.11 15.44-15.2 6.74-6.7 14.02-12.65 22.36-17.28 5.17-2.87 10.22-5.96 14.8-9.75 6.39-5.3 12.78-10.59 18.9-16.19a32 32 0 0 0 4.33-4.77 14.8 14.8 0 0 0 2.89-10.64"/><path fill="#222" d="M175.81 249.32v-.02h-.01zm144.66-147.7v.02zM201.54 285.2h.03zm-23.35-40.62-.07.07.12-.04zM148.52 132.6v-.05h-.01.01-.03v.03zm169.18-30.47h.03v-.03zm2.3-.05v.02zm-9.67 109.76.03.02v-.03l-.05-.01.04.06v-.02zm7.85-110.17h.02v-.03zm-77.94 218.49a74 74 0 0 1-11.9 11.84 236 236 0 0 0-26.86 24.15 72 72 0 0 1-4.33 4.13q-4.04 3.59-9.31 4.81c-2.19.5-4.1 0-5.87-1.25a12 12 0 0 1-3.5-3.93 40 40 0 0 1-3.28-6.82c-.27-.74-.7-.82-1.17-.31-3.34 3.58-7.62 5.93-11.4 8.94-9.05 7.2-19.5 10.8-30.78 12.46-10.16 1.5-20.24.67-30.23-1.23-10.33-1.97-20.57-4.36-30.89-6.36-9.19-1.78-18.45-3.18-27.65-4.91a197 197 0 0 1-30.45-8.06c-3.17-1.15-6.35-2.33-9.76-2.57-.22-.35-.34-.63.11-.95 8.9-6.16 16.26-14.04 23.99-21.5 9.84-9.5 20.37-18.21 31.05-26.76 7.49-6 14.84-12.18 21.9-18.7a31 31 0 0 0 4.04-4.39l-.5-.51c-1.53 1.5-3.02 3.06-4.62 4.5A429 429 0 0 1 58 300.2c-12.68 9.99-24.95 20.44-36.47 31.77a270 270 0 0 1-18.47 16.68c-.64.52-1.39.98-1.74 1.8-.47.22-1.08.39-.98 1.07.07.53.6.67 1.03.8q1 .29 2.02.47 4.1.76 7.98 2.22c10.55 3.91 21.5 6.34 32.48 8.54 16.94 3.4 34 6.16 50.84 10.09 8.91 2.07 17.93 3.6 27.14 3.48 6.92-.09 13.83.24 20.73.47 4.78.16 9.53-.01 14.28-.33 5-.33 9.9-1.3 14.6-3.1 4.01-1.54 8.1-2.86 12.21-4.12 2.22-.69 4.4-1.5 6.3-2.8 4.4-2.94 8.9-5.73 12.65-9.57a258 258 0 0 1 26.45-23.97 67 67 0 0 0 7.43-6.9c3.76-3.96 7.25-8.14 9.77-13.04l-.23-1.64c-1.92 2.68-3.67 5.48-5.77 8.04m154.53-162.38c.13.31.4.48.7.36a9 9 0 0 0 2.45-1.64l-.57-.56q-1.21.61-2.42 1.25c-.21.12-.25.36-.16.59m93.36-30.49c-.41.3-.7.6-.73 1.07.64-.05.8-.45.73-1.07m-.74 1.07h-.03l.01.04h.02v-.02.01z"/><path fill="#222" d="M486.42 129.52c-1.28 1.25-2.7 2.38-3.73 3.87-2.45 2.32-4.94 4.61-7.35 6.98a102 102 0 0 1-17.85 14.12c-4.05 2.5-8.07 5.05-12.13 7.54A128 128 0 0 0 423.31 179q-4.04 3.94-7.91 8.06c-4.87 5.14-9.93 10.06-15.94 13.9a39 39 0 0 1-4.16 2.27c-.51.24-1.04.63-1.4.12-.43-.61.23-.87.68-1.17a58 58 0 0 0 6.19-4.74c3.88-3.42 7.13-7.4 10.3-11.47 4.55-5.84 9.49-11.29 15.66-15.5a72 72 0 0 0 3.94-2.8c5.8-4.56 12.1-8.45 17.53-13.46 1.16-.4 1.88-1.25 2.66-2.35h-1.16l.77-.96-.52-.46q-.57.18-.92.66c-2.91 1.72-5.9 3.31-8.71 5.17a253 253 0 0 1-20.53 12.3 51.5 51.5 0 0 0-18.6 16.48 67 67 0 0 1-4.79 6.19 26 26 0 0 1-16.45 8.86c-.64.1-1.33.34-1.9-.14-.1-.5.19-.79.4-1.1a48 48 0 0 0 7.1-17.83c.74-4.09 1.07-8.21 1.52-12.33.14-1.3.3-2.35 1.74-2.84a2.1 2.1 0 0 0 1.32-1.34c-.66-.17-1 .24-1.42.38s-.77.52-1.27.3c-.29-2.5-.3-2.57 1.73-3.5 1.27-.6 2.34-1.5 3.67-1.99.64-.23 1.9-.6 1.5-1.38-.56-1.09-1.44.02-2.1.34-1.64.8-3.05 2.1-5.03 2.17-.37-.8-.24-1.65-.1-2.47a19 19 0 0 0-.6-8.64c-1-3.47-1.91-6.95-2.59-10.5-1.12-5.92-4.3-10.95-7.1-16.12-.48-.86-1.22-1.58-1.86-2.34a45 45 0 0 0-6.5-6.18c-3.74-2.94-6.3-6.85-9.17-10.72 1.59-1.08 3.4-1.15 4.98-1.79 1.89.02 3.63-.96 5.53-.84-.12.29.34-.15.04-.08-1.85.02-3.72-.48-5.56.1-1.6.11-3.15.5-4.66 1.05-.75.28-1.45.37-2.14-.17-.95-.75-1.93-1.46-3.12-2.37a32 32 0 0 1 9.54-2.75c3.34-.38 6.73-.33 10.05-.93v-.88c-7.08-.58-14.1-.82-20.77 2.35q-2.22 1.05-4.7.41a23 23 0 0 0-6.88-.5 82 82 0 0 1-20.81-1.66c-6.35-1.31-12.53-.85-18.23 2.64-1.3 1.28-2.8 2.34-3.88 3.86a15 15 0 0 0-2.61 5.3c-.33 1.43-.35 1.42-2.34.84 1.8-3.83 3.9-7.39 7.22-10.08 5.48-5.38 12.03-8.1 19.72-7.93q2.88.07 5.74.47c4.9.65 9.8.81 14.7-.05a94 94 0 0 0 10.32-2.35 71 71 0 0 1 20.9-3.1c2.23.03 4.45-.13 6.67-.29.73-.05 1.42-.42 2.14-.38-2.36-.5-4.72-1.01-7.15-1.11-2.62-.1-5.22-.35-8.34-.6 1.73-1.17 3.1-1.63 4.45-2.16 3.8-1.48 7.6-2.91 11.3-4.64 4.07-1.9 7.83-4.29 10.86-7.64a128 128 0 0 0 7.92-9.6c1.06-1.41 2.21-2.87 2.67-4.55.48-1.8 1.6-2.84 3.01-3.77a42 42 0 0 1 7.56-3.92c5.13-2.07 10.08-4.54 15.07-6.92 2.2-1.05 4.4-2.16 6.32-3.7.75.08 1.2-.41 1.67-.87.65.08 1.04-.22 1.37-.85-.95-.17-1.6.16-2.2.62l-.83.35-1.97.57c-5.93 1.67-11.4 4.57-17.24 6.45-8.46 2.73-15.6 7.47-21.71 13.86q-.9.91-1.8 1.79a56 56 0 0 1-12.46 9.42c-2.3 1.25-4.6 2.48-6.86 3.78-6.1 3.5-11.81 7.48-16.5 12.8a3.7 3.7 0 0 1-1.95 1.09c-3.72.95-7.41 2-11.14 2.9a42 42 0 0 1-14.18 1.05c-1.84-.19-3.67-.41-5.5-.54-10.68-.73-19.4 3.04-26.07 11.42a35 35 0 0 0-4.72 7.62c-.33.75-.77 1.02-1.57.99-1.6-.07-3.22-.05-4.83-.08a5 5 0 0 1-2.22-.54c.25-.3.38-.48.54-.61.25-.2.5-.43.78-.48 3.74-.73 6.12-3.4 8.52-5.98a131 131 0 0 0 13.98-17.7c8.2-12.57 17.09-24.62 27.18-35.74 5-5.51 9.29-11.66 14.92-16.6a55 55 0 0 0 3.63-3.55c5.1-5.4 4.72-10.52-1.08-15.12l-.19-.14c-4.21-2.7-8.15-5.76-12.14-8.76q-1.31-.94-2.74-1.69c-4.9-2.66-9.97-1.96-13.98 1.9a30 30 0 0 0-5.13 6.78c-5.04 8.7-11.72 16.15-17.85 24.01-2.18 2.79-4.52 5.43-6.76 8.17-3.54 4.35-6.92 8.84-10.75 12.94-4.87 5.23-9.83 10.37-14.71 15.59a83 83 0 0 0-6.57 7.72c-1.33 1.82-2.5 3.78-2.74 6.02-.26 2.51-1.72 4.32-2.88 6.48-2.8-1.72-5.73-2.83-8.19-4.86-2.2-1.8-4.44-3.54-6.52-5.49-4.58-4.3-9.82-7.35-16.2-8.05-3.8-.41-7.51.22-11.21.95-4.9.97-9.82 1.91-14.86 1.17-2.2-.32-4.38-.79-6.57-1.18-1.67-.3-3.37-.52-5.04-.11-7.43 1.8-14 5-18.67 11.37a83 83 0 0 0-4.17 6.07c-2.03 3.35-4.04 6.71-6.12 10.03-4.13 6.58-8.4 13.05-13.4 19.01a171 171 0 0 1-13.03 13.68c-3.22 3.08-6.32 6.28-8.84 9.99-2.35 3.45-4.37 7.08-5.05 11.26-.3 1.78-.89 3.4-1.69 4.98a29 29 0 0 0-3.3 15.35c.53 7.3.66 14.57-.03 21.87a18.4 18.4 0 0 0 2.32 10.66 42 42 0 0 0 4.24 6.56q1.8 2.26 3.61 4.5a6 6 0 0 1 1.38 4.67q-.92 9.3-.56 18.65c.1 2.72.52 5.35 2.3 7.58.36.46.95.78 1.02 1.57-1.35 1.28-2.75 2.58-4.12 3.92-1.55 1.5-2.05 3.2-.98 5.2.23.44.67.88.37 1.47-1.27 1.13-2.2 2.54-3.2 3.88a62 62 0 0 1-12.43 12.18 6.8 6.8 0 0 1-5.76 1.32c-4.58-.88-9.24-1.39-13.74-2.68-.94-.27-1.93-.65-2.82.17l.48.47c.3 0 .64-.06.91.03 4.52 1.57 9.26 1.97 13.9 2.88l2.28.27c-.13.92-1.16.7-1.47 1.32l-.89.12c-.05.06-.09.16-.15.17-2.9.67-3.75 2.65-4 5.45-.4 4.41-2.23 8.48-4.26 12.34-5.17 9.85-10.35 19.72-16.99 28.71-.31.43-.7.82-.73 1.37.47.6.82.2 1.17-.08q2.27-1.78 4.52-3.57c9.96-7.99 21.01-14.12 32.64-19.28 1.7-.75 3.52-1.06 5.28-1.58.96-.29 1.46-.8 1.36-1.82-.34-3.62 1.18-6.76 2.73-9.85a36 36 0 0 1 4.22-6.56c9.35 1.58 18.59 3.7 27.84 5.77q9.63 2.17 19.24 4.36c.44.1.9.12 1.36.17 4.9 1.32 9.9 2.02 14.9 2.8 12.59 1.99 25.26 3.23 37.93 4.49 4.5.44 9 .78 13.43 1.8 1.64.37 3.35.37 5.05.35.83-.01 1.68-.19 2.49.2.54.06 1.62-.65 1.18.82l-.61.24-.69 1.15a9 9 0 0 0-1.97 2.7l.22 1.63c1.02-1.08 1.58-2.44 2.34-3.69l1.17-1.44c.77-.52 1.44-1.12 1.48-2.12-.32-.35-.72-.26-1.09-.28-5-.27-9.94-.85-14.76-2.27a40 40 0 0 0-9.53-1.46 80 80 0 0 1-8.03-.67 244 244 0 0 0-24.03-2.54c-3.13-.15-6.3-.2-9.4-.8-3.32-.62-6.65-1.17-9.97-1.75-.59-.17-1.16-.38-1.76-.5-15.13-3.2-30.08-7.28-45.38-9.7-.59-.1-.78-.38-.72-.91 2.78-4.58 7.07-7.88 10.18-12.18.35-.48.73-.73 1.37-.53 2.11.67 3.54-.37 4.71-1.97q1.52-2.1 3.08-4.3c3.43 3.72 6.75 7.34 10.1 10.94a23 23 0 0 0 4.1 3.69 9.5 9.5 0 0 0 8.14 1.22c2.74-.78 4.98-2.36 7.03-4.25 1.23-1.14 1.25-1.2 2.48 0 1.48 1.44 2.9 2.96 4.35 4.44 2.1 2.14 4.18 4.3 6.7 5.97 5.16 3.4 10.74 2.39 14.41-2.57a20 20 0 0 0 3.42-7.24c.24-.95.69-1.66 1.46-2.26a68 68 0 0 0 3.74-3.06c3.18-2.83 4.84-6.29 4.3-10.64-.75-6.15-3.15-11.49-7.57-15.9a84 84 0 0 0-9.01-7.54q-1.65-1.25-3.25-2.58c-.33-.27-.8-.55-.36-1.36 4.68 1.26 9.5.5 14.3.2 5.9-.37 11.8-.9 17.38-3.14 3.85-1.55 7.87-2.6 11.86-3.73 1.78-.51 3.6-.84 5.44-.9 4.76-.14 9.5-.81 14.27-.75 1.22.02 2.47-.05 3.67-.3a9 9 0 0 1 3.64.05 38 38 0 0 0 22.17-1.72 181 181 0 0 0 18.3-8.11 111 111 0 0 1 17.45-7.18c5.48-1.73 11.07-3.16 16.3-5.66 5.7-2.73 11.59-2.67 17.53-.8.21.07.45.1.67.18 2.34.75 4.7 1.4 7.18 1.55.63.03 1.19.2 1.7.61 3.73 3.1 8.16 4.2 12.88 4.1 6.6-.14 12.69-2.17 18.34-5.51a54 54 0 0 0 11.59-9.06q4.82-4.97 9.42-10.12a100 100 0 0 1 23.38-19.65c4.61-2.75 9.28-5.43 13.9-8.16 4.85-2.85 9.5-5.96 13.51-9.96 2.56-2.55 5.14-5.08 7.65-7.67a51 51 0 0 0 5.4-6.29c1.26-1 1.98-2.41 2.87-3.7.58-.3.76-.77.64-1.38q-.78.29-.96 1.1m-76.46 50.02.06-.16q-.04.07-.06.17m-.05.05q-.39.03-.43.42.04-.39.43-.42m-7.25 8.87-.07.28zm-.32.45-.02.08zm-.22-135.26.05-.16q.23.04-.05.16m-2.55 2.1.47-.44.47-.44.5-.41c.15-.22.33-.37.62-.32 0-.29.17-.41.43-.44a.6.6 0 0 1-.43.44l-.41.52-.44.48-.44.48-.45.48-.42.37-.56.5.56-.5-.69-.08q.24-.52.8-.64m-18.52 14.6c2.77-1.4 5.33-3.13 7.94-4.78a39 39 0 0 1 4.08-3.51l.14-.17q.44.15.6.6a.3.3 0 0 1-.25.2c-1.18 1.29-2.27 2.68-3.92 3.44-4.54 4.8-10.45 7.17-16.45 9.41-.27-.16-.54-.33-.63-.67 2.83-1.5 5.63-3.06 8.5-4.51m-89.16 2.9c.25-.17.51-.36.8-.45 2.84-.86 4.45-3.02 6.05-5.35a401 401 0 0 1 26.31-34.06c2.85-3.32 5.71-6.62 8.3-10.16 1-1.35 1.06-1.77-.31-2.4-2.89-1.34-5.26-3.45-7.98-5.03-.46-.27-.94-.53-1.26-1.16.18-.29.29-.5.43-.67 1.6-2.12 1.6-2.12 3.89-.92q4.5 2.37 8.43 5.58c2.02 1.64 4.18 3.11 6.3 4.65q1.94 1.43 3.65 3.15c.77.78.96 1.38.1 2.3-1.8 1.94-1.95 2-4 .18-.81-.7-1.56-1.5-2.43-2.12-1.8-1.3-2.93-1.22-4.39.46-2.42 2.78-4.73 5.65-7.1 8.47-6.68 8.02-13.4 16.01-20.06 24.05-1.86 2.24-3.57 4.6-5.34 6.92a16.6 16.6 0 0 0-3.18 6.81c-.74 3.53-3.18 5.58-6.34 5.63-1.84.02-2.95-.67-3.42-2.13-.44-1.37.12-2.75 1.55-3.74m89 110.26-.3-.33c-.39-.46-1.55-.39-1.22-1.27.3-.8 1.22-.7 1.98-.57l.44.09c-.2.74-.29 1.52-.9 2.08m.92-2.54c-.73-.03-1.61.14-1.57-1.03.04-1.24.56-1.66 1.98-1.7a5 5 0 0 1-.4 2.73m.5-3.56c-.27-.13-.7-.2-.77-.4-.25-.72.34-1.25.55-1.87q.24-.77 1.04-.58c-.43.9-.16 2.01-.82 2.85m.4-7.53c-.36-.44-1.19-.2-1.37-.91a8 8 0 0 1-3.92-.16c-.03-.69.03-1.47.7-1.5.96-.04 1.93.24 2.88.44.36.08.25.5.33.76.71-.45 1.48-.57 2.3-.45.07.8.14 1.59-.91 1.81m-41.56-68c.3-.2.6-.16.8.14.14.2.06.41-.06.62-.34.59-.75.99-1.48.57l.04-.75q.34-.32.7-.59m-9.05 4.33c-.24-.47.42-.97.08-1.43.31.17.55-.02.76-.3.7-.15.9.21.86.83-.54.34-.88 1.08-1.7.9m4.02-1.79c-.14-.37 0-.65.17-.92-.17.27-.31.55-.17.92m2.9.02c-.37.13-.72.43-1.08.4.36.03.71-.27 1.07-.4m-2.18-1.45-.25.02q-.32-.22-.32-.46-.01.25.32.46zm-.3 1.28-.08.04zm-.85-1.72c-.25.33-.44.74-.77.97-.69.5-.6-.11-.62-.51.44-.22.78-.75 1.4-.46m-1.69 2.79-.1-.02zm-1.96-.7a1.4 1.4 0 0 0-.57.94l-.85.22-.17-.44c-.14-.03-.33-.04-.41-.15.08.1.27.12.42.15l.06-.53q.43-.15.56-.58c.4-.06.9-.33.96.39m-22.64-.7q.64-.28.9-.94c.31-.07.9-.42.8.19-.1.75-.68 1.33-1.55 1.35-.05 0-.1-.39-.15-.6l-.45-.38-.19.1-.2-.08-.03-.9c-.23.06-.47.16-.69.2.22-.03.46-.14.69-.2.37-.1.77-.29.84.34q-.37.13-.42.54zm4.64-.44-.03-.03.44-.14 1.03.25.84-.08c.23.28-.1.78.38.96.75.38 1.1-.74 1.79-.57-.7-.17-1.04.95-1.79.58v.03l-.08 1.3.08-1.3c-.42-.28-.68 0-.96.26-.32.32-.63.69-1.17.47-.55-.09-1.2.35-1.62-.32l-.3-.03c-.57.04-1.51.26-.75-.79.45-.6 1.06-1.7 2.1-.62l-.04.04zm14.27.44-.48.47zm.92 2.02c-.05-.39-.29-.7-.47-1.03-.25-.01-.5-.03-.68-.16.18.13.43.15.68.16.18.33.42.64.47 1.03m-4.59-.14a.5.5 0 0 0-.3-.13q-.12-.3-.39-.36.27.05.4.36.15.01.3.13m-2.36-.05c-.46-.33-.03-.6.05-.9.38 0 .8-.06.92.46-.36.06-.5.62-.97.44m-1.78-1.28q-.15.1-.05.35c-.06-.15-.05-.3.05-.35m2.97-2.47-.11.11zm-3.93 2.77c.23 0 .47-.2.7-.13-.23-.07-.47.13-.7.13m-.39-4.47-.13-.1zm-1.45 1.77c-.1-.42-.01-.63.47-.45-.24-.84.39-.92.95-1.04.02.64-.32.98-.93 1.06q.05.51-.46.47c-.04.45-.37.47-.72.46.13-.32.25-.65.69-.5m-9.17 1.44.03.05zq-.11 1.42-1.38.76c.34-.48.65-.99 1.38-.76m-3.7.81-.01.03zm-.05.1.01-.02zm-.6 1.37c-.79 1.08-.84 1.1-1.47.45h.03l-.03-.02c.47-.32.68-1.25 1.54-.63zm-2.72-1.05c-.19-.2-.53-.29-.78-.43.25.14.6.22.78.42m-.95-.54.03.02zm-.88 3.88c.26-.04.51.04.76.39l.1.01-.1-.01c-.25-.35-.5-.43-.76-.39m.7.88.24-.47c1.34-.56 2.8.15 4.15-.38.29.75-.33 1.16-.64 1.67a7 7 0 0 1-3.76-.74zm5.39-.42c.37-.06.86-.22 1.05.16.16.33-.15.7-.45.97-.31.28-.7.27-1.08.26-.16-.58.34-.92.48-1.39m1.34-1.84h-.08zm0 0q.25-.2.09-.43c.46.12.56-.3.78-.55l-.85-.29.85.3 1 .04c0 .36-.23.87.12 1.04.35.16.67-.2.82-.58.28-.06.62-.22.82.04.31.4-.06.67-.3.94l.31-.12-.31.12c-.2.24-.58.5-.72.33-.62-.73-1.27-.57-2.02-.32-.28.1-.5-.22-.59-.52m2.09 2.26q0 .13.03.26v.28l.02.02c-.55.23-1.06.66-1.78.23.29-.9.68-1.5 1.73-.79m3.05.46h-.03zm2.25-1.86c.55-.46 1.02-1.08 1.87-.87.14.85-.58 1.25-.94 1.83l-1.2-.08zm4.3-.43c-.12.94-.75 1.31-1.6 1.44.03-1.04.52-1.56 1.6-1.44m3.1-.43-.87-.1.03-.81c.4.09.78-.48 1.2-.06l.05.01-.05-.01c.27.28.05.55-.03.83a1 1 0 0 0-.32.14m3.92-1.22q.26.22.35.58c1.05-.71 2.07.3 3.12.05l.17.11c-.87 1.66-2.42.67-3.64.94l.35-1.1a1 1 0 0 0-.35-.58m4.8.36-.34.38q-.35.9-.68 0h.68zm-4.37-4.73c.05-.6.53-1.1 1.22-.43l-.19.82 1.46.16-1.46-.16c-.36-.11-1.09.33-1.03-.39m-1.58 2.8c-.47.01-1.3.26-.81-.63.27-.51.66-1.73 1.75-.74-.34.44-.82.78-.94 1.37m-3.25-2.7c-.22.33-.5.5-.9.4q0 .47-.47.47l.01.91c-.28.03-.7.1-.72-.22-.03-.37.33-.6.7-.7q.07-.4.47-.47c.17-.44.52-.45.91-.39M315 98.46q.26-.11.36.16c-.1.08-.2.21-.3.22-.07 0-.15-.16-.23-.24q.07-.09.17-.14m-2.85.67c.53.2.15.77.42 1.09q-.63-.18-.45.43-.24-.23-.5.01c.05.18.12.37.35.31.08-.02.12-.16.18-.27q.41-.04.46-.45.37 0 .49-.36c.34-.12.69-.54 1-.33.42.3.07.64-.18.9q-.53.57-1.08 1.12c-.8.8-1.28.37-1.66-.44-1.18.62-1.18.62-1.88-.84l-.68.66.68-.66.05-.04c.25.54.63.54 1.07.24.6-.42 1.01-1.1 1.73-1.37m-3.95-.14c.25-.06.37.14.45.35l-.64-.02c.06-.12.1-.31.19-.33m-.2.34q0 .46-.45.45-.13-.59.45-.45m-1.81 1.15c.2-.73.71-.81 1.34-.7.01.66-.7.88-.86 1.44q-.67-.08-.48-.74m.16 1.8-.6.32zm-1.6.27h.03c.06-.1.1-.28.17-.3.23-.05.31.13.36.32l-.53-.02zl.08 1.8c-1.23-.08-1.07-.86-.83-1.68.24-.1.47-.25.75-.12m-43.93-12.4c3.27.98 6.51 2.07 9.5 3.79l1.78 1.03c.43.24.8.9 1.27.75.03.21.26.43.48.6 2 1.58 3.59 3.53 5.23 5.44.38.4.23 1.48 1.3 1.03.75-.56.01-.86-.21-1.26-1.64-2.55-3.49-4.9-6.25-6.35-.34-.82-1.08-1.14-1.83-1.44-2.37-2.1-5.46-2.74-8.2-4.1-1.1-.56-2.3-.92-3.53-1.39.57-1.2 1.44-1.47 2.5-1.42q4.66.22 8.8 2.32c1.84.94 3.54 2.14 5.33 3.17 3.32 1.9 5.4 4.9 7.28 8.1.46.78.69 1.68.8 2.6.2 1.58-.25 2.71-2.01 3.24-.7-.64-.82-1.7-1.4-2.46-.31-.43-.36-1.26-1.25-1-.54.17-.42.52-.24.89l1.35 2.91c.25.53.02.88-.45 1.1-.53.24-.63-.18-.78-.53-1.68-3.84-4.58-6.66-7.83-9.14-1.82-1.39-3.8-2.58-5.72-3.83-2.35-1.5-4.8-2.71-7.7-2.61.3-1.77.33-1.87 1.77-1.44m11.05 32.43c.26.75.23 1.45-.33 2.07l-.77.72-.48.48a1 1 0 0 0-.31.32c-.46.28-.8.25-1-.32-.19-.54-.03-1.2-.57-1.6q.7-2.55 3.09-3.62c-.05.68.14 1.32.37 1.95m-6.8 13.54c-.4.25-.82.48-.87 1.03q-.45 0-.45.45c-.97.46-1.2-.24-1.45-.92-.44-1.74.99-2.33 2.03-3.43a5 5 0 0 1 .74 2.87m-3.62 3.8q-.5-.04-.47.46-.5-.04-.46.46-.5-.03-.46.45c-1.17-.1-.73-1.25-1.16-1.84a3.8 3.8 0 0 1 2.55-2.75c.3 1.07.69 2.14 0 3.22m2.21-10.55c.52 1.61.52 3-1.05 4.19-1.06.8-1.05-.08-1.37-.59-.34-1.97 1.12-2.73 2.42-3.6m.84-.1c-.3-.8.03-1.41.58-2q1.18-1.32 2.35-2.68c1.38 2 1.35 2.59-.2 4.18q-.84.9-1.66 1.81c-.96.07-.69-.89-1.07-1.3m-4.05 3.78c.73 1.66.15 2.9-1.24 3.9-1 .7-.88-.27-1.1-.74.07-1.58.95-2.56 2.34-3.16m-2.8 3.25c.02.93.49 1.92-.32 2.76-.93.62-1.48 1.69-2.49 2.22-.53-.3-.37-.97-.72-1.35.91-1.47 1.83-2.94 3.54-3.63m-3.13 10.98c-.6-.43-.74.06-.92.47-.63.22-1.18.77-1.94.46.18.3.61.57.22.95-.68.67-1.08 1.7-2.18 1.83-.5.06-1.02-.01-1.54-.03l.03-.45c-.25-.35.04-.47.28-.6.63-.72 1.13-1.6 2.15-1.86.68-1.67 2.1-2.72 3.35-3.9.28-.28.5.1.66.36.35.94-.12 1.85-.1 2.77m-4.62 7.4c0 .6.53.46.86.6-.7.98-1.35 2-2.68 2.17-.69-.44-1.4-.76-.46-1.76.67-.72 1.45-.84 2.28-1m-3.23-.94c-.14 1.57-1.17 2.32-2.52 2.79-.48-.79-1.24-.96-2.08-.92-.04-.55.83-.7.58-1.34q.59.17.41-.42c.76.14 1.38-.7 2.18-.3l.03-.2c.5-1.35 1.25-2.4 2.89-2.36V151l1.2.6c-.74 1.01-1.39 1.98-2.69 2.16m-3.82 5.17c-.76.66-1.34 1.67-2.6 1.4-.86-.27-.57-.9-.47-1.47q.47 0 .47-.46.43-.03.47-.46.38-.06.46-.47c.29-.07.43-.29.48-.57a1 1 0 0 1-.4.2l-.1.36-.36.1-.1.36-.38.09-.08.37-.39.08-.07.38q-.24.18-.47 0c.15.57-.26.8-.67.95-.42.16-.71-.03-.79-.5.47-.13.7-1.01 1.36-.54-.15-.17-.1-.34.07-.51q.23-.57.8-.79l.16-.16.49-.53.41-.36.4-.26.53-.25-.15.68 2.22-.01h-.03c.3 1.17-1.05 1.47-1.26 2.37m17.96-2.57 1.01-.23q.54.6-.04 1.19c-.73.24-1.19 1.04-2.05 1.03-.58-1.17.8-1.28 1.07-1.99m4.73 2.04c-.3 1.4-.97 1.84-2.7 1.78-.4-.37-.73-.94-1.38-.43-.11-.79-.17-1.56.69-2.04.67-.45 1.32-.57 2.03-.04.41.3.9.49 1.36.73m-6.75 1.12c-.21.2-.4.44-.08.72.88-.32 1.72-.9 2.73-.47.2.63.77.81 1.3 1.04-.54.75-1.04 1.57-2.19 1.35-.44-.27-.87-.58-1.34-.79-.53-.23-.54-.62-.47-1.08-.64-.53-1.28.37-1.92 0q-.06-.2-.15-.4c.24.01.42-.24.6-.38.55-.4.96-1.02 1.73-1.02.13.38.12.72-.2 1.03m1.13 3.04c-.2 1.53-1.42 1.9-2.62 2.29l-1.68-1.09c1.81-2.33 1.81-2.33 4.3-1.2m-3.53-1.66c-.41 1.37-1.25 2.26-2.71 2.45l-.38.53c-.28 1.5-1.75 2.1-2.5 3.24l.9.02c.38-.35.84-.64 1.14-1.04q1.65-2.22 4-.8c-1.23 1.86-2.56 2.84-4.12 3.05l-.34.63c-.2 1.13-1.03 1.36-2 1.41q-.97-.36-.9-1.4c.96-.39 1.93-.67 2.9 0l.34-.64c-.27-.47-1.13-.43-1.03-1.21l-.89-.02c-1.47-.51-1.53-.59-.6-1.33.94-.76 1.57-2.1 3.1-1.9l.37-.54c.33-1.45 1.36-2.14 2.72-2.45m-38.72-18.54.49-.52-.1-.1.1.1.47-.44-.47.44zl-.43.4zm3.48 33.28c.43-.44.87-.9 1.58-.7-.52 1.15-1.59 1.97-1.93 3.22-.9 1.99-2.97 2.33-4.63 3.24-.18.2-.36.14-.47-.06-.03-.06.08-.2.13-.3zm-.21-37.02q.37-.07.46-.46c.15-.09.3-.18.32-.31-.02.13-.17.22-.32.31q-.08.38-.46.47l-.32.4zm12.18-17.67c-.47.57-.82 1.31-1.64 1.51q-.08-.38-.45-.5c.05-1.25 1.2-1.71 1.82-2.55.7.41.7 1.02.27 1.54m5.35-9.18-.15-.86c-.06-.44-.66-1 .1-1.27.52-.17.45.67.89.8-.12.54.52 1.56-.84 1.33m.85-3.64-.19-.2c-.2.09-.48.12-.58.27-.59.94-1.05.42-1.52-.07.01-.95-.6-1.8-.48-2.76.4.1.64.01.48-.46 1.92-.17 2.47.62 2.1 3.02zl.83.13c.17.57.45 1.14.5 1.73.04.72-.33.98-.98.46-.25-.75-.95-1.44-.36-2.32m3.35-7.7c.5-.24.71.6 1.22.35-.45.71.31 1.45-.04 2.16l.09.64c1.3-.06.9 1.31 1.54 1.81l-.14.95-.97.77-.14-.04-.15.04c-.1-1.06-1.2-1.92-.6-3.12l-.02-.6c-.3.12-.6.27-.91.08q0 .59-.43.97l-.58.7c1.3.08 1.44 1.28 1.99 2.07.02.62-.3 1.05-.78 1.38l-.13-.02-.05.12c-.6.66-1.1.69-1.48-.23-.11-.27-.29-.52-.43-.78-.03-.68.6-1.26.32-1.98-.33.35-.66.65-1.07.11-1-1.3-.94-1.98.26-3.04.28-.24.62-.4.93-.6l.82-.05c-.42-.86.46-1.15.75-1.7m7.78-3.03.91-.35c.36 1.63-.47 2.5-1.9 2.97-.12-.77-.53-1.61.52-2.09-.75-.04-1.45-.18-1.9-.88-.33-1.22.98-1.48 1.38-2.28.45-.14.9.31 1.36.02-.35.83.25 1.8-.37 2.6m2.79 45.68c-2.39 2.4-4.55 5.03-7.25 7.11-.77 1.15-1.6 2.22-3 2.67v-.03h-.01c.03-1.31 1.1-1.93 1.86-2.75l8.3-9.3c1.1.72.65 1.75.1 2.3m-10.67 11.19-.97-.06zm4.62-50.78c0-.4 0-.78-.48-.91-.18-1.13.23-1.98 1.12-2.7.75-.62.86.17 1.22.42.24 1.56-.74 2.42-1.86 3.19m-.12.07-.04.03zm-.4-.95q-.13.51.18.95c.02.57.16 1.2-.62 1.42l-.76-1.6c-.18-.4-.32-.88.13-1.18.47-.32.66.39 1.07.4m2.8-7.89c-.17-.16-.38-.29-.57-.1-.9.88-1.55.35-2.19-.32.36-1.76.91-2.22 2.71-2.28q.28 1.35.05 2.7m-1.42 2.36c-.3.31-.06.66-.04 1 .07 1.12-.83 1.65-1.57 1.97-.66.28-.54-.91-1.1-1.14.41-1.35 1.28-2 2.71-1.83m-2.75 1.83c.03.36 0 .73.12 1.06.23.6.3 1.2-.34 1.51-.63.3-.62-.7-1.16-.74-.07-1.01.1-1.83 1.38-1.83m-8.26 63.17c.68.08.9-.31.9-.91.68-.55 1.5-.37 2.28-.45.1.27.43.52.2.82-.65.83-1.3 1.69-2.04 2.45-.82.84-1.8.52-2.73.13l-.14-.1-.18.02c-.77.22-1.55.61-2.48-.06l4.15-3.8.46-.01c.32.26.4.62.47 1q-.97-.06-.9.9m6.86 5.4c.77-.94 1.64-1.1 2.67-.33-1.48 2.18-1.49 2.19-3.57 1.74-.13-.74.57-.96.9-1.4m-1.33.31c-.6.66-1.37.85-2.19 1.03-1.2.28-1.2-.4-1.07-1.22.37.06.5-.12.46-.46.97-.04 1.24-1.71 2.73-.96.62.3.83.74 1.13 1.13-.44-.19-.77.18-1.06.48m-2.86-.69c-.12-.04-.25-.1-.34-.06-.24.12-.18.32-.1.52-.54-.36-.76.2-1.04.45-.6.58-1.21.91-2.1.42.36-.96 1.17-1.57 1.8-2.3a1.3 1.3 0 0 1 1.66-.34c.65.3-.32.91.12 1.31m-5.33 5.3c-.9 1-1.34.94-2.44-.18-.68-.25-.7.4-.97.7l.1.23-.1-.22c-.7.23-1.44.18-2.17.12-.43-.1-.56-.43-.62-.81l-1.14.94c-.36.3-.24.56 0 .83q-.15-.18-.31-.16.09-.1.02-.26c-.29-.64-.84-.3-1.3-.34-.2-1.02.98-1.47.99-2.4.5-.26.7-.9 1.3-1.03.04-.35.09-.7.5-.83.78-1.52 2.23-2.43 3.34-3.64.47-.5 1.09-.47 1.7-.48l.5.43.58.1.79-.28 1.79.34c-1.25 1.57-1.88 3.62-4.39 3.45-.64-.05-.45-.44-.36-.8.21-.1.34-.25.23-.49q.44-.02.46-.46c.39-.2.74-.4.47-.91.43.13.52-.1.45-.47.36.15.46-.1.56-.37l-.57-.11-.02.44c-.35-.04-.47.15-.46.47-.46.16-.87.33-.49.9-.48-.18-.55.05-.44.47-.57-.34-.63.21-.84.51-.46.34-.79.88-1.42.96l.14 1.44c.73-.95 1.69-1.2 2.86-.9.3 1.18-1.5 1.44-1.17 2.62 1.28.21 1.37-1.06 1.99-1.65 1.02-.96.95-1.02 2.6-.85-.75.95-1.41 1.86-2.16 2.69m-4.18-46.61c.72-.2.78-1.56 1.9-1.08.23.78-.2 1.33-.65 1.86-.38.43-.7 1.33-1.34.99-.88-.46-.17-1.18.09-1.77m8.31-9.24-.09-.1zm-6.12 7.82c.14-1.68.5-2.11 1.97-2.42-.18 1.2-.54 2.24-1.97 2.42m-2.58 3.5c.1.82-.32 1.07-1.04.98l-.04-.18c-.1-.55-.12-1.08.55-1.3.43-.13.5.21.53.5m-1.08 1.01c.06 1.68-1.24 2.45-2.29 3.39l-.3-.86c-.6.22-.74.78-.96 1.29.22-.5.36-1.06.95-1.29.32-.85.96-1.48 1.47-2.2.31-.44.7-.42 1.13-.33m-5.02 45.7 2.7-.5c-.16.6-.88 1.05-.5 1.8-.45-.25-.44.16-.53.43l.52.07.06-.46c.76-.4 1.26-.94 1.1-1.87l3-.2-.59 1.5c-1.13.56-2.12 1.6-3.57 1.03l-.52-.07c-.76 1.4-2.17 1.84-3.55 2.31-.2.08-.4-.13-.4-.4.97-1.09 1.97-2.15 2.28-3.64m7.01.76-.14-1 .97-.72c.62.15 1.38-.3 1.84.46l1 .33q.08-.39.24-.58-.16.19-.24.58l-1-.33c-.68.86-1.66 1.08-2.67 1.26m5.86-2.06c-.48-.2-1.46-.07-.77-1.06.53-.75 1.15-1.43 1.75-2.13.5-.59 1.1-.8 1.86-.42-.07 1.25-1.36 1.81-1.66 2.93a2.5 2.5 0 0 1-1.18.68m4.32-2.58c.77-1.01 1.7-1.08 2.83-.67-.3 1.1-1.43 1.64-1.62 2.72-.99.88-2.12.5-3.23.38q1.04-1.2 2.02-2.43m3.72.3q1-1.22 2.52-.43c-.17 1.03-1.23 1.5-1.58 2.41a6 6 0 0 1-2.6.18c.3-.91 1.09-1.45 1.66-2.15m4.83-2.02c-.89.44-1.73 1.27-2.85.2.65-.75 1.11-1.78 2.42-1.45.74.19.52.76.43 1.25m.41 1.87c-.4 1.46-1.23 2.4-2.86 2.34.34-1.54 1.07-2.58 2.86-2.34m-1.74-4.86c-.86.58-1.65.01-1.87-1.13q.45 0 .47-.46.45 0 .46-.46.46 0 .46-.48c1-.6 2.05-.82 3.28-.18-.59 1.26-1.74 2-2.8 2.71m-.98-2.09q-.71-.25-.46.46c-.48-.17-.67-.06-.47.44-.34-.37-.58.01-.81.18-.44.31-.85.62-1.21-.08h-.15l-.12-.07c-1.2.8-1.32-.01-1.38-.91.55.24.67.04.47-.46 1.01.38 1.1-.74 1.69-1.07.43-.25.78-.53 1.05.14q.21-.06.44-.03c1.05-.53 1.32.09 1.42.94-.45-.14-.64-.02-.47.46m-4.15-.47q-.53-.06-.47.47c-.92.17-1.55 1.6-2.88.54 1.25-1.16 1.74-3.26 4.07-2.84.32.92-.83 1.1-.72 1.83m9.65-70.97c.8.05 1.4.43 1.98 1.16a3.2 3.2 0 0 0-1.38 1.9c-.17.6-.47 1.3-1.3 1.38.07-.93-.44-1.57-1.08-2.15q.07-.85.84-1.25c.33-.18.67-.36.54-.85-1.14.64-2.07.5-2.72-.72q.04-.6.42-1.1c1.2.06 2.17.48 2.7 1.63M121.68 201.75l.04-.36zc.23 1.36 1.53 2.6.52 4.11-1.2-1.52-2.15-3.08-.94-5.03-.04.38.04.71.42.92m.56-1.3c0 .33-.13.56-.5.62-.04-.27-.08-.54-.46-.32-.2-1.24-.66-2.45-.5-3.74.06-.4.13-.75.53-.93.81 1.35.98 2.83.93 4.37m-.88-4.51v.06zm-.1-.15c-.6-1.57-1.85-2.94-1.46-4.83.18-.88.54-.39.89-.2a7.5 7.5 0 0 1 1.1 4.12c-.01.4-.1.75-.52.91m-1.9-12.97c1.07 2.01 1.36 4.24 1.7 6.44a5.7 5.7 0 0 1-1.7-6.44m-1.06-5.15c0-.03.39.08.6.13.48 1.15.58 2.4.79 3.61-1.07-.66-1.8-2.58-1.4-3.74m-.35-6.76.04-.51zm2.04 40.9c-3.24-4.65-5.28-9.64-4.76-15.46.52-5.9.4-11.79.08-17.69-.19-3.37-.14-6.74.48-10.08.75.85.67 1.93.78 2.95.2 1.92.08 3.86.6 5.74.7 2.52.87 5.13 1.32 7.7.08.45.02.9-.4 1.22q.07.16-.04.28-.05.4.31.56c1.62 4.67 1.56 9.54 1.74 14.39 0 .3-.06.72-.4.67-.85-.13-.68.23-.43.7.46.88 1.02 1.7 1.02 2.76 0 1.58.09 3.17.13 4.76.3-.05.48-.4.82-.33-.23-1.27-.74-2.53-.31-3.84.65-.01.73.6 1.15.74.18.5.55 1.02.5 1.49-.24 2.46.13 4.88.38 7.36-1.32-1.1-2.12-2.53-2.97-3.92m-33.26 100.9c1.48-2.84 3.15-5.58 4.35-8.56.13-.34.21-.75.65-.88.22 1.14.6 2.23 1.36 3.1.75.88.68 1.5-.1 2.31q-4.27 4.62-8.48 9.28-.29.36-.55.73l-.13-.88c.62-1.9 2-3.36 2.9-5.1m5.22 3.12-5.62 3.52c-.56.46-1 1.18-1.9.9.17.48-.15.47-.48.45.01.35-.3.48-.5.69.1-.29.13-.61.47-.73q.06-.42.47-.45c.2-.7.77-1.08 1.33-1.45 2.72-3.08 5.47-6.15 8.15-9.26.71-.83 1.3-1.1 2.29-.4a4.4 4.4 0 0 0 2.99.92l1.26.1.07.84c-3.06 1.24-5.76 3.13-8.53 4.87m43.19-43.54c-.93 1.11-1.81 2.28-2.8 3.34-2.78 2.99-5.06 6.35-7.5 9.6-2.68 3.59-4.57 7.6-6.17 11.76-.7 1.87-1.27 3.8-1.12 5.83.06.93-.25 1.45-1.17 1.63-3.73.69-7.15 2.27-10.53 3.88a10.7 10.7 0 0 1-6.68.96c-.92-.37-1.9-.57-2.75-1.13-.58-.39-.66-.77-.19-1.29q.62-.68 1.22-1.38 8.02-9 16.01-18.06c.47-.53 1.26-.9 1.14-1.82.04-.32-.06-.75-.38-.55-.56.36-1.02.9-1.47 1.41q-8.03 9-16.05 18.02-.6.71-1.24 1.36c-.82.78-1.28.76-1.77-.2-.47-.95-.75-1.99-1.1-2.99q-.07-1.49.61-2.85c2.28-4.66 4.4-9.38 4.97-14.62.08-.7.4-1.11 1-1.39q.93-.44 1.84-.9c1.8-.41 3.43-1.25 4.94-2.28a44 44 0 0 0 6.94-5.62c3.82-3.96 7.42-8.11 10.68-12.55 2.18.78 4.02 2.2 6.06 3.25.74.4.51.97.2 1.53-1.65 2.02-3.6 3.8-4.95 6.08-.3.06-.66.61-.9.02-.19-.48-.16-1.05-.28-1.57-.13-.56-.45-.96-1.08-1-.58-.05-1.08.1-1.35.64q-.44.82-.76 1.67c-.68 1.95-1.37 3.89-1.97 5.86a7 7 0 0 1-2.13 3.45c-.1 1.02.47 1.05 1.02.54 1.38-1.28 3.1-1.92 4.73-2.75l4.49-2.29a5 5 0 0 0 1.64-1.22c.93-1.16.59-1.96-.85-2.22-.7-.13-1.53.43-2.11-.37 1.88-2.17 3.89-4.22 5.6-6.53.4-.29.78-.38 1.24-.05 1.35.95 2.23 2.3 3.19 3.6.37.5.09.83-.22 1.2m-5.14-5.07h-.06zm10.64 1.33-.5.48c-.27.71-.86.53-1.35.38a6 6 0 0 1-2.73-1.6c-2.58-2.9-5.76-5.02-9.06-6.97-.65-.4-1.33-.77-1.9-1.28-.88-.79-.9-1.56.32-2.08l.37-.45c.24-.8.66-1.23 1.47-.64 4 2.89 8.42 5.19 11.86 8.8q1.1 1.16 2.02 2.47c.33.46.14.86-.5.9m3.25-4.06c-.37.56-.63 1.22-1.46 1.75-3.6-5.33-9.72-7.38-14.88-11.04 2.1-3.22 2.08-3.19 5.33-1.63 4.1 1.97 7.94 4.29 10.88 7.86 1.38 1.68 1.33 1.26.13 3.06m1.87-19.33-1.45-.34-1.27.45c-.54-.28-1.18-1.08-1.45.22l1.43-.17q0 .3-.03.58a9 9 0 0 1 2.72-.4c-.53 1.18-1.58 1.53-2.73 1.68l-.02-1.22-1.7.64c-.16.15-.35.3-.52.04-.03-.04.15-.22.24-.33l.54-.77c-1.42.25-2.43 1.34-3.75 1.8-.03.01.04.28.06.42l.24.22c.73-.3 1.4.26 2.13.13.56-.49 1.25-.16 1.87-.3-.37.8-1.1.94-1.85 1.03-3 1.36-6.1 1.46-9.27.84q-1.97.1-2.4-1.81c-.5-.15-.91-.37-.8-1-.12-.92-.38-1.83-.34-2.74.26-5.28.08-10.58.72-15.84q.24-2.1 1.32-3.89a22 22 0 0 1 8.79-8.2q.51-.26 1.06-.44c3.43-1.21 4.48-.6 5.57 2.84 1.67 5.28.66 10.29-1.24 15.26-.38 1-1.14 1.56-2.03 2.03.12.54.18 1.06-.47 1.33-1.75 1.75-3.9 2.96-5.83 4.46-.78.61-1.62 1.15-2.25 1.94-.98.62-1.65 1.53-2.33 2.42-.45.6-.88 1.34.24 1.79 1.04-1.6 2.73-2.57 3.86-4.08q3.1-2.18 6.2-4.39a9.7 9.7 0 0 0 3.24-3.82c2.56-5.67 3.8-11.51 1.9-17.67q-.28-.88-.67-1.71c-.99-2-2.3-2.68-4.48-2.3-3.06.5-5.6 2.05-7.89 4.04-1.04.91-1.95 1.96-2.92 2.94-.3.3-.46.8-1.26.73.4-3.85.01-7.7.84-11.55a171 171 0 0 1 5.92-21.28c3.96-11.17 6.72-22.64 9.08-34.22 1.45-7.09 3.88-13.76 8.72-19.29 2.23-2.53 4.8-4.76 7.06-7.27 6.23-6.9 13.14-13.12 19.77-19.63 1.32-1.3 2.5-2.7 3.46-4.29a8.2 8.2 0 0 0 1.18-5.07 4 4 0 0 0-.52-1.75c-.21-.33-.46-.63-.91-.48-.37.13-.37.49-.33.77.17 1.32.2 2.61-.57 3.78-.37-.41-1.47-.16-1.1-1.29.24-.75-1.07-.54-.98-1.3q0-.09-.05-.19l-.06.22c-.37 1.22-1.29 2-2.22 2.79l.29.39.2-.02c.13-.14.32-.33.48-.13.09.1-.01.36-.02.55-.07.5-.47.79-.73 1.16l.33 1.07.08-.1c-.1 3.14-2.6 4.34-4.55 6.1-.5-.7-.21-1.13-.18-1.57l-.7.08c-.16 2.87-1.94 4.57-4.23 6.03-.53-1 .47-2.02-.33-2.82.65.13.38-.48.51-.76l-.53-.6c-.03.42-.46.83-.12 1.27q-.22-.1-.4.13c-.63.46-1.53.72-1.42 1.77q-.7-.23-.47.46c-.44-.13-.64-.03-.47.44-.57-.38-.74.05-.9.49-.3 0-.52.1-.47.45-.6-.5-.24-1.25-.45-1.85-.72-.1-.85.54-1.17.94 1.04.27.23 1.28.66 1.8-.34-.16-.38.28-.56.43-.1.48.35 1-.15 1.44.32 3.06-1.83 4.55-3.87 6.23-.74-.98.09-1.99-.32-2.85q.2.1.36-.11c-.19-.3-.36-.5-.46.04l-.52-.1-.57.5c.87 3.67.13 4.6-2.96 6.8-.3-1.09-.11-2.11-.1-3.12l-.92.94c-.2.78.16 1.65-.44 2.36q.12.2-.02.39c.32.62.17 1.2-.23 1.7-.97 1.25-1.97 2.48-3.1 3.88-.5-1.1.22-1.68.5-2.37l.07-.74-.45.28c-.36-1.48.2-2.63 1.26-3.62q.97-.94 1.92-1.9-.01-.2.02-.37c-.58-.2-.97.1-1.42.42-1.68 1.15-2.58 2.92-3.7 4.52l.04 1.02.47-.02c.1-.58.29-.15.45-.02q-.2.26-.42.07c.05 1.09.1 2.18-.5 3.16l-.03.64c.57.04.57.5.44.8-.65 1.48-1.4 2.9-2.47 4.2-.33-.54-.23-.98-.1-1.42-.1-.4-.16-.82-.61-1-.25.9-.28 1.85-.76 2.68-.57.33-.72.85-.64 1.47-.47.15-.46.56-.5.95.46-.15.53-.53.51-.95l.93-.45q.2 1.05-.22 2.02l-2.5 5.62c-.12-1.96-.8-3.94.24-5.85l.31-.44c-.71-.42-1.1-1.11-1.51-1.8.13-.47.58-.84.45-1.4.47-.14.55-.49.46-.92q.5.03.45-.47c-.33-.02-.45.17-.46.46-.44.17-.53.5-.47.93-.6.32-1.23.63-.45 1.39l.12 2.39c-.24 1.97-1.02 3.79-1.62 5.65a7 7 0 0 0-.47 2.44c0 .37.26.49.61.4.1-1.28.51-2.47 1.14-3.94l.39 1.84.06 2.74c.2 1.85-.59 3.53-.75 5.52-1.5-.9.04-2.22-.74-3.04-.92.09-.05 1.38-1 1.43.78 1.48-.24 2.93-.05 4.4 1.3.46 1 1.38.65 2.3l-.2 1.82c.18 1.17-.33 2.19-.55 3.51-.68-.77-.36-1.77-1.23-2.06l.02 3.65q.85 1.06-.18 1.96a24 24 0 0 1-1.13 4.22 187 187 0 0 0-9.88 34.01c-.16.83-.38 1.64-.6 2.6-.75-1.04-.65-2.12-.7-3.15-.34-7.6-.76-15.2-1.88-22.73-.94-6.38-1.95-12.75-2.93-19.13-.71-4.67-.7-9.34.17-14 .66-3.44 2.23-6.52 4.1-9.45a47 47 0 0 1 6.55-8.01q2.7-2.7 5.43-5.33a142 142 0 0 0 24.07-29.89 549 549 0 0 1 6.28-10.2c1.23-1.94 2.57-3.83 3.84-5.74 3.14-4.71 7.53-7.86 12.7-9.93 2.73-1.1 5.63-1.69 8.56-.82 7.58 2.25 15.18 1.96 22.81.43q1.92-.39 3.86-.65c5.72-.82 10.99.38 15.87 3.44a44 44 0 0 1 6.46 5.18c.28.26.57.52.4.97.34-.09.32.18.38.38.57-.11.93.27 1.34.54-.03.3.14.66-.15.86a321 321 0 0 1-5.67 3.75c-.5.32-.83-.06-1.09-.46.42 1.31-.64 1.74-1.42 2.3a27 27 0 0 0-4.36 3.66c-.4.04-.78.44-.6.64.4.48.67 0 .88-.36.48-.26.94-.66 1.56-.35l.01.07c.07-1.32.98-1.59 2.05-1.66.04-.57.4-.92.85-1.23l7.12-4.86c.6-.41 1.17-.8 1.78-.04l-.03-1.09c1.52.12 1.79.35 1.8 1.55 1.11-.23 1.95.31 2.77.94-.2 1.61-.81 2.12-2.66 2.23q-.21.06-.43.06c.55 1.16-1.03 1.35-1.03 2.25.28.56.67.24.9.03.5-.48.94-.12 1.4.01.14 1.76-.19 2.64-1.41 2.8-.62.07-.87-.03-.9.66a.8.8 0 0 1-.74.75c-.45.04-.58-.4-.78-.72-.45-.7-.39-1.29.36-1.75.66-.4 1.5-.7 1.17-1.75l-.92-.24c-.9 1.71-1.02 1.77-2.4 1.12.42.86 0 1.54-.47 2.21l.38.45c.4-.19.8-.58 1.14.05.37.68.78 1.36.13 2.1l.3.3-.3-.3c-.46.3-.91.66-1.36-.01l-.26-.66c-.43-.62 0-1.04.35-1.48l-.38-.45-.78.13-.52.02c.01.44.03.9-.25 1.29l.75.45.38.3.25.8c-.06 1.45-.46 1.9-2.07 2.27l-.69-.11c.78 1.05-.43 1.56-.64 2.34-.3.01-.5.13-.48.46-.3-.18-.49-.55-.92-.45.07.68-.3 1.25-.47 1.88.55-.02.98.13 1.2.7.12.3.16.73.65.68l-.08 2.16q.12.2.12.44c.64.08.72.68 1 1.09.23.78-.2 1.3-.7 1.8l.78.31.54-.05.6-.25c-.05-.7.18-1.11.97-.9v.9c.19 1.08-.48 1.72-1.18 2.34l-.17.19.17-.19-.7-.1.02.06.03.49-.48-.04-.02.01.05.5-.5-.05-.02.9q-.2.01-.39.08l.13-1.14c-.67.15-1.07.6-1.37 1.18-.43.63-.82 1.47-1.65.38q.27-.76.97-1.13c.75-1.17 1.86-2.02 2.78-3.03l-1.95.32-1.88.55q-.07.16-.22.26c-.43.66-1.1.8-1.82.8l-.46.53c-.14 1.17-.87 1.97-1.65 2.76-1.4 2.37-2.85 4.73-4.23 7.1-4.6 7.9-10.95 14.28-17.99 19.85a194 194 0 0 0-13.15 11.11c-1.16 1.1-2.55 1.96-3.86 2.9a58 58 0 0 0-7.34 6.57c-3.62 3.69-6.67 7.8-9.85 11.81a27 27 0 0 1-4.03 4.1c-4.1 3.4-5.37 7.88-5.25 12.94.15 5.98 0 11.97-.54 17.93-.75 8.31-3.1 16.09-7.94 23a33 33 0 0 1-4.9 5.47c-.53.47-1.08.86-1.76 1.06-.11.25-.2.54-.56.54-.44 1.37-1.67 1.3-2.75 1.5m18.87-129.21c.45.14.64.03.48-.45.56.38.7-.1.9-.47q.42-.06.47-.47.42-.02.46-.45l1.32-.15c-.12 2.92-2.11 4.5-4.2 6.13-.66-1.16.37-2.24-.27-3.2.83.2.96-.25.84-.94m17.62-13.86a10 10 0 0 1-1.88 2.7c-.44.45-.57.02-.69-.34.27-1.42 1.08-2.26 2.57-2.36m-1.85-1.08a1 1 0 0 1 .49-.39c.22-.08.42.05.38.32-.05.35-.34.47-.62.58-.2-.11-.38-.28-.25-.5m24.79 51.34.17-.17zm-5.87 4.75c-.13.16-.31.34-.5.16-.2-.18.02-.34.16-.48.23-.36.56-.96.94-.57.4.43-.26.67-.6.89m-3.34 2.63.47-.43-.02-.02.02.02zm-10.63 16.17c0 .31-.15.57-.45.66-.5.14-.42-.3-.42-.53 0-.29.13-.59.51-.56.23.01.4.14.36.43m-1.33-1.17c.16.53-.4.72-.51 1.12q-.28.2-.52.42c-.67.66-.82.19-.91-.4q.06-.2.16-.39c-.17-.69.42-1.62-.66-2.02q-.14.1-.32.13a2.1 2.1 0 0 1-.55 1.73c-.41.23-.95.36-.9 1-.5-.1-.97-.23-.94-.9l.48-.95c-.17-1.4.77-2.23 1.58-3.13.23-.27.5-.66.92-.35.37.26.1.7.15 1.06-.15.15-.34.3-.06.47.03.02.18-.16.28-.24l.37-.1c.11-.6.65-.9.92-1.38q-.18-.1-.1-.28c-.3-.13-.5-.35-.41-.7.31-1.27 1.62-1.68 2.35-2.6.18-.24.67.13.75.57l-1.29 1.64c.35.01.92-.37.82.45-.17.25-.15.77-.7.5l.05.07c.4.43-.05.64-.24.92-.27.4-.9.57-.8 1.2q-.23-.18-.46.04c.16.37.33.33.5.02l1.18.03c-.34.71-.59 1.47-1.14 2.07m12.87 71.71q0 .45.47.46c.35.76.47 1.52 0 2.3-1-.44-1.58-1.16-1.5-2.3.19-.5.62-.45 1.03-.46m2.32 2.3q-.02.45.45.45 0 .45.47.47c.43.75.05 1.5-.01 2.26-1.6.1-1.86-1.12-2.21-2.25.36-.41.46-1.2 1.3-.94m-4.1-2.3c-1.2.36-1.33.23-1.46-1.4 1.11-.6 1.32-.54 1.49.49.04.3-.02.6-.03.91m-2.57-5.08-.25.92c1.15.64 1.42 1.6 1.02 2.8-1.78-.5-1.84-.65-1.03-2.8q.15-.46.26-.92c-.02-.33.01-.64.27-.85-.26.21-.3.52-.27.85m-.37-3.73c.43.7.09 1.08-.57 1.3.27.33.36.71.02 1-.25.21-.55-.03-.81-.15l-.3.15c.38-.34-.03-.6-.17-.87-.24-.46-.65-.93.12-1.29l.92 1.04c.2-.78-.27-1.24-.81-1.66a1 1 0 0 1-.08-.32q.85-.22 1.32.52.1-1.83-1.8-2.44c.3-.38.02-.66-.17-.96-.27-.43-.69-.8-.55-1.4 2 .45 2.8 2.25 3.89 3.64.6.77-.51 1.05-1 1.44m-4.18 3.34c.36 1.24-.23 1.1-.97.67-.25-.15-.45-.38-.67-.57-.35-.1-.78-.02-.97-.47-.51-.63-1.9-.23-1.84-1.55.43-.12.46-.45.48-.82.02-.6.41-.66.89-.56q.26.26.47-.03c.1-.33-.08-.52-.33-.67-.1-.45-.4-.94.25-1.23.07-.34 0-.8.13-1.08-.14.28-.06.74-.13 1.08l.52.07c.14-.3-.01-.73.41-.9l.57.44c.04.44.39 1.06-.52.9q-.02-.43-.44-.42-.05.49.41.45c.14.48.36.95.11 1.46q-.1.42-.53.37.43.05.53-.37l-.54-.06-.43-.03c-.38.53.07.74.4.99.17.44.26.88.06 1.33l.94.5 1.14-.02q.1.1.2.04-.22.2-.14.48m-12.76-3.76.45.47c.49.43.7.92.34 1.53-.4.66-.34 1.38-.34 2.1-1.23.02-1.17-1.13-1.63-1.8q-.32-.14-.2-.47c-.14-.41-.37-.8-.27-1.26-.19-.28-.33-.57-.2-.92-.73.18-1.1-.42-1.3-.86-.28-.62 0-1.13.83-1.01-.06-.67.19-1.05.91-1 .12.65-.23 1.43.55 1.9l.52.26.44-.43-.44.43zM172 244.6c.14-.64.34-1.26.96-1.62.73.88 1.23 1.82.9 3.01-.46.2-.91-.35-1.38-.06.46-.65.11-1.03-.48-1.33m-2.36-5.1-.43.32q.16.34.47.16c-.36.56.02 1.3-.45 1.83-.61.5-1.23.87-1.84 0 .2-1.02.64-1.85 1.82-1.99l.43-.33c-.2-.87.2-1.44 1.04-1.96.47.57.76 1.17.56 1.95q-.27.18-.17.48h-1.36q.05-.07.05-.16zm-2.68-49.37c.21-.8.24-1.76 1.47-1.62-.43.6-.32 1.67-1.47 1.62m11.05-14.3c.05.59.05 1.16-.44 1.6l-.5-.2c-.06.43-.41.43-.72.5.15-.3.25-.64.7-.51-.25-.85.43-1.07.96-1.39m1.87.56c.32.24.6-.05.9-.1v-.46.47l.09 1.44c-.3 1.17-1.29 1.64-2.2 2.19-.36-.97-.12-1.8.57-2.53.27-.3.78-.47.64-1.01m2.73 50.2.17-.2zm-1.52 4.89c-.08-.24-.32-.53.1-.65.13-.04.34.15.51.23 0 .33.18.5.47.6.11-.3.2-.32.3-.22-.09-.1-.19-.08-.3.22l.43.03-.06 1.29c-.64 0-.79-.65-1.23-.92zm-1.27-1.17-.05.03c-.2-.78-.18-1.69-1.18-2 .64-1.37.76-1.41 2.25-.81l.47.1-.17 1.67c-.47.3-.62 1.01-1.32 1.01m-5.43 2.28c-.3.34-.21.85-.06 1.38-.15-.53-.25-1.04.06-1.38m.18 1.57-.02-.02zm5.69-53.67.4-.42zm-.34 1.4c-.19.93-1.01 1.18-1.69 1.58l-.07-.05c-.34-1.45.64-2.02 1.7-2.54zm1.72 28.94c.7.69 1.23 1.36.97 2.4-1.03.44-1.34-.54-1.8-1.02-2.45-2.55-4.77-5.22-7.4-7.58-.37-.32-.62-1.13-1.4-.63.29-.9-.21-1.02-.93-.93-.5-1-1.48-1.54-2.17-2.36-.3-.38-.96-.71-.27-1.29.53-.43 1.06-.58 1.56.07.14.18.34.3.5.47q5.46 5.44 10.94 10.87m-5.8-25.46h.12l.25-.57c.54-.36.93-.87.94-1.36-.01.5-.4 1-.94 1.36l-.25.56c.65.03.76.38.67.85.09-.47-.02-.82-.68-.84zl-2.03-.3zm-2.06 3.29c-.28.2-.7.24-.84.64-.87-.05-1.4.31-1.45 1.23-.57-1.09-.56-1.62.37-2.21.6-.4 1.12-1 1.9-1.1.33.47.02.96.03 1.44m-.38 1.55q.22-.03.43 0c0 .33.13.73-.35.85-.1.03-.33-.04-.36-.12-.1-.3.11-.52.28-.73m-3.71 1.25c-.3.2-.68.51-1.03.2-.33-.32-.09-.7.11-1.03q0-.11.03-.22c.1-.47-.04-1.2.73-1.11.92.1.54.8.44 1.33.03.32 0 .64-.28.83m-1.1 2.34q.26-.25.5-.1c-.17-.25 0-.5.23-.54.67-.12.4.4.4.72l.3.45c-.2 1.08-.56 2.01-1.94 1.85.43-.74.01-1.66.51-2.38m-.11 7.82c.48.49.96 1 1.5 1.4.23.16.53.5.84.36-.05.2.13.37.32.55.25.23.52.53.84.12-.53.75.29 1.02.62 1.33 2.78 2.52 5.42 5.2 8.03 7.9.47.49 1.04.88 1.57 1.32l.01 2.8-.55.11c-4.74-4.68-9.14-9.69-13.71-14.53q-.26-.23-.5-.48c-.24-.3-.5-.62-.14-.99.42-.42.8-.26 1.17.11m1.53 16c2.28 2.37 4.45 4.87 7 7 .37.3.73.6.28 1.1s-.83.14-1.16-.18a369 369 0 0 1-4.88-4.89q-2.16-2.23-4.27-4.51c-.5-.54-1.25-1-.72-2.14 1.34 1.29 2.6 2.4 3.75 3.61m14.88 14.98c.16.53 0 1-.2 1.45.2-.45.36-.92.2-1.45m-2.75-4.91q-.06-.31-.17-.61.1.3.17.61m.3-48.74-.78.6zm-6.18.34c-.14.22-.32.43-.15.69-.34-.18-.62.08-.92.15-.17-.61.17-1.03.54-1.44.32.07 1.03-.2.53.6m-.38-1.29.03-.04zm-.24 2.48q.46 0 .52-.45c.46-.08.74-.38.93-.8.14-.36.34-.72.43-1.1-.1.38-.29.74-.43 1.1.52.05.44.49.54.81-.38.83-1.28.95-1.94 1.4l-.19-.57a.6.6 0 0 0 .14-.39m-3.5 2.92-.37.12.16-.33a6.4 6.4 0 0 1 2.35-2.66c-.08 1.64-.6 2.64-2.14 2.87m-3.69 5.09c.14-1.3.76-2.09 2.19-2.01-.28 1.16-.8 2.07-2.19 2.01m-1.49 2.67c.58-.1 1.07-.06.78.72-.2.56-.73.62-1.26.59-.13-.55.25-.9.48-1.31m-.46 1.9c.42-.04 1.12-.29 1.13.23.01.84-.44 1.54-1.52 1.34zm.05 3.13.85-.03c-.07 1.72-.07 1.72-1.1 3.06-.44-1.55-.44-1.55.25-3.03m1.47 22.76a76 76 0 0 0 6.8 7.45c.33.31 1.15.63.62 1.22-.65.71-1.06-.17-1.43-.53a59 59 0 0 1-3.34-3.46 39 39 0 0 0-4.2-4.22c-.9-.76-.88-.78-.5-2.52.97.58 1.49 1.36 2.05 2.06m2.87 21.62c.02-.2.13-.4.2-.6l.49-.2c1.06.67 1.24 1.72 1.25 2.85-1.39.25-2.12-.52-1.94-2.05m5.18-6.95.09-1zc.44.8 1.12 1.45 1.58 2.23-.46-.78-1.14-1.43-1.57-2.23m3.34.16.07.04zm.16 2.18q.12.17.4.26.13.04.31.07.28.35.54.34-.26.01-.54-.34l-.32-.07a1 1 0 0 1-.4-.26m1.65-1.4c-.15-.48-.4-.88-.9-1.06l-.44-1.34.97.27c.35.67.93 1.23 1 2.04zm.88 2.56.53-.85-.01-.9c1.09.78 1.12.87.45 1.43l-.16.57.16 1.19c-1.03 0-1.3-.52-.97-1.44m7.79-.9-.38.04-.03.91q-.27.7-.51 1.4.24-.7.51-1.4c-.58-.07-.73-.74-1.25-.92l-.04-.88h.41l.02-.5c.05-.4-.1-1.06.66-.44l.7.47zm-1.68 4.2v.02zm.96.62c.45-.32.36-1.3 1.27-1.06-.07.32.11.48.38.58.78.96-.03 1.79-.06 2.7-1.4-.25-1.62-1.16-1.59-2.22m-2.4-9.49c1.77 1.88 1.77 1.88.24 3.32-.17-.24-.3-.53-.68-.46.22-.63-.8-1.17-.13-1.84l-1.3.03.04-.5c-.25-.43-.65-.8-.55-1.36q-.31 0-.4-.3c-.96-.63-1.76-1.38-1.88-2.62.9.22 1.1 1.23 1.85 1.62l-.02-.04c.66.03.87.65 1.28 1l.59-.37-1.43-1.84-.59.41.59-.41 1.43 1.84.57.66-.01.53zm1.33-63.13-.47.46c-.63.63-.97.54-.98-.4q.16-.13.16-.35c.44-.16.76-.62 1.31-.5zl.6.62c.45-.12.93-.24.75.5-.11.4-.41.74-.85.9l.1-1.4zM158.8 278.36c-3.88-3.94-7.37-8.25-11.4-12.05-.64-.6-.8-1.31-.1-1.7.8-.47.6-2.1 2.05-1.69.22.06.33-.03.24-.19-.53-.87.07-1.44.56-2.01q2.48-2.88 5-5.74c.44-.5 1-.32 1.45.03.53.44 1.14.87 1.48 1.43 2.65 4.4 5.63 8.63 7.12 13.64.33 1.09.5 2.08-.14 3.09-.6.45-1.22.9-.94 1.81-.5-.26-.62.2-.77.45a19 19 0 0 0-1.96 4.71c-1.17-.14-1.86-1.03-2.59-1.78m4.68 2.04c-.4.96-.89.72-1.47.24.4-2 1.68-3.66 2.13-5.63.66-.14.86-.64.95-1.23 1.04.63.4 1.4.15 2.11-.37 1.07-1.07 1.99-1.28 3.14q-.08.47.07.74c-.22.05-.4.3-.55.63m13.6-7.57c-1.15-1.04.06-1.67.42-2.45q-.12-.12-.03-.27l-.45-.15h-.84l-.13.8c0 .44.15.94-.34 1.25.3.54.04 1.04-.09 1.55l.23 1.06-.13.05-.1-.11c.17 1.15-.7 1.76-1.32 2.5q-.17.55-.72.37c-2.11 2.8-5.02 3.99-8.42 4.08-1.28.03-.84-.67-.46-1.29l-.06-.1.05.02c.02-1.69 1.48-2.7 2.02-4.2.63-1.77.69-3.4.44-5.11a20 20 0 0 0-1.85-5.42c-1.68-3.63-4.02-6.86-6.28-10.13-.56-.8-1.31-1.47-2.06-2.3 1.35-1.1 2.18-2.9 3.97-3.73.43.84.64 1.84 1.66 2.27.3-.5.09-.96.11-1.4-.65-.26-.74-1.06-1.31-1.4.18-1.04.6-1.85 1.84-1.87l.3-.49c.03-1.03.39-1.66 1.57-1.27-.18-1.45.65-2.24 1.82-2.83.29.56.67 1.1.37 1.78q.16.15.22.36c.3-.1.6-.14.81.17l.62-.02c-.58-.98-.06-1.74.53-2.47 1.48-.13 1.14 1.18 1.52 1.92l.08.61c.28 0 .57.33.85.06-.29.58.02.97.5 1.3.1.66-.27 1.22-.44 1.82q-.5-.04-.46.46-.46-.2-.93 0c-.45 1.01-.33 1.75.95 1.88-.27-.61.52-1.23.01-1.84.15.05.27.24.48.02.18-.18.08-.29.01-.4.32.4.76-.07 1.12.06l.59-.18c-.08-.54.17-.96.5-1.35 1.1.63 1.38 1.72 1.55 2.85 1.1.64 1.3 1.7 1.38 2.83.87.43.78 1.31.93 2.08.52.2.41.62.33 1.02.89.49.94 1.33.77 2.15-.11.53-.26 1.01-.02 1.53 1.07 2.4.6 4.89.31 7.34-.14 1.24-.1 2.63-1.32 3.5l.22.7a3.4 3.4 0 0 1-1.32 2.39m16.26 15.84c-1-.1-.97-.7-1.08-1.19l-.58.11c-.28.61-.73.44-1.14.2a25 25 0 0 1-3.86-2.87c-3.06-2.68-5.5-6-8.73-8.49-.54-.41-.57-.8-.18-1.35a19 19 0 0 0 3.06-6.87c.12-.5.4-.85.94-.81 4.74.3 8.99 1.63 11.85 5.78 1.12.41 1.05 1.4 1.08 2.3.03 1.24-.24 2.44-.44 3.66-.54 3.14-1.23 6.26-.92 9.53m12.23-10.92a3.3 3.3 0 0 1-.88 1.83l.02.52c.41 1.94-1.24 2.07-2.34 2.68.19.04.5-.01.48.26-.01.26-.31.24-.52.28.23.43-.25.63-.31.97l.08.12-.07.12q.39.8-.47.67c.33.93-.43 1.02-.98 1.27-.16.3-.36.56-.72.64a7.6 7.6 0 0 1-5.1 1.87c-.3-1.78-.15-3.44.08-5.09q.45-3.3 1.05-6.56c.55-2.94-.37-5.19-2.72-7.05a17.4 17.4 0 0 0-10.3-3.95l-1.32-.07c-.47-.6-.22-1.23-.2-1.83.1-3.53-.1-7.02-1.08-10.44a4 4 0 0 1-.11-2.03c-.7.08-.88-.3-.8-.92-.12-.46-.21-.93.06-1.38-1.43-.9-1.77-1.68-1.39-3.23-.1-.6-.46-1.23.08-1.78-1.11.3-1.14.22-1.13-1.45l-.18.06-.18-.04c-.84-.15-.97-.77-.98-1.47.5-.14.72-.8 1.33-.71-.4-.54-.8-1.07.29-1.26.32.49.43 1 .17 1.55h.5l.51.02.09-.53c-.18-.56-.09-1.28-.9-1.43l-.3-1.26c.75-.25.57-.9.66-1.44q1.6 1.19 2.78 2.8c.8.56 1.65 1.06 2.22 1.89q3.1 1.7 6.2 3.43c7.85 4.44 16.02 17.6 16.72 25.41a24 24 0 0 1-.34 7.53m1.9-13.3c-.08.38.1.5.47.44.16.96-.25 1.82-.5 2.7q-2.12-2.18.03-3.15m.28 8.93c-.63-2.79-.6-2.92 1.14-2.96-.18 1.04-.29 2.12-1.14 2.96m-10.4-32.93c1.55.48 2.55 1.72 3.71 2.73q1.08.51 1.8 1.44a17 17 0 0 1 4.4 4.03c4.15 3.89 6.31 8.77 7.06 14.32.6 4.33-1.4 7.5-4.8 10.17-.43-1.06 1.05-1.78.33-2.71.52-.1.45-.64.68-.95-.76-.09-.85.33-.74.9-.28-.24-.58-.03-.88-.01-.34-.7-1.3-1.17-.84-2.18.53-.57.3-1.64 1.26-1.94-.52-.58.1-1.28-.15-1.91-.44.16-.73.56-1.2.53a.6.6 0 0 0-.5-.49v.02c-.3-.4-.6-.8-.56-1.33l1.83-5.65c.33-.45.7-.9.33-1.61-.45.49-.77.88-.72 1.45-1.22 1.57-1.67 3.46-2.25 5.3-.52.1-.81-.09-1.1-.56-.52-.89-.33-1.76-.14-2.66a7.3 7.3 0 0 0 1.2-4.1 7 7 0 0 0-1.8 4.1c-1.4-.28-1.17-1.91-2.12-2.57.13-.17.24-.37.4-.5.66-.58.5-1.3.38-2.02 1.12-.43 1.12-1.3.9-2.26.44.23.42-.2.55-.41q.63-.62.36-1.46c.53-.12.45-.54.46-.92q.35-.1.42-.46l-.42.44c-.31.23-.5.53-.47.94-.39.05-.5.3-.47.66-.32.33-.62.67-.46 1.18-1.07.44-1.24 1.25-.92 2.24-.46-.27-.53.47-.91.4a3.6 3.6 0 0 0-1.37-1.3l-.11-.86a8.4 8.4 0 0 0 1.47-4.61q.28.1.31-.19.01-.3-.3-.26 0 .22-.03.43c-.67.53-.7 1.7-1.8 1.81.08-.37-.04-.56-.45-.47.1-.4-.02-.6-.47-.46 0-.76-.66-1.49-.13-2.28l-.82.02c-.16.35-.62.05-.84.28q.13-.56-.54-.31c-.55-1.76-.18-3.47.3-5.18-1.3.42-1 1.92-1.88 2.7-1.32-.6-.4-1.6-.41-2.43.48-.58.63-1.27.6-2-.24.15-.64.25-.7.45-.4 1.19-1.15.74-1.88.49l.7-3.37c1.03.36 1.77.81 1.95 1.88q1.37.18 1.77 1.5m-2.3-4.85q.15-.07.3-.17l.15.17q-.15.1-.3.14c-.04 0-.1-.09-.16-.14m61.83-10.41c-.11-.44-.25-.95.3-1.15q1.26-.45 2.56-.73c.82-.18.7.53.81 1-.97 1.33-2.4.75-3.67.88m8.21-1.1c-.53-.7-.32-1.83.5-2.56.69.2 1.24-.57 2.08-.15.34.76-.43 1.59-.23 2.45-.73.7-1.8.97-2.35.26m6.05-.3 1.53-.3c.32.71-.04 1.44-.47 1.55-.89.24-1.9.31-2.69-.44-.02-.02.14-.22.22-.34v-.87c-.45-.05-.92.34-1.37-.01.1-.44.27-.87.3-1.31q.11-1.5 1.54-1.59c1.11-.06 2.11-1.3 3.32-.3.11.75-.72 1.47-.1 2.25-.88-.34-1.55.25-2.3.5-.53-.08-.98.14-1.39.46v.87c.54.06.98-.18 1.4-.48m17.34-8.63c1.47.36 2.74-.8 4.2-.59.17 1.89.16 1.88-1.41 2.35q-1.2.37-2.38.76c-.47-.02-1.02.36-1.36-.29.18-.8.29-1.63.95-2.23m-1.6 2.23c-.15.25-.25.66-.47.74-1.54.53-3.03 1.34-4.75 1.11-.02-1.4.47-2.33 2.04-2.45.68-.06 1.35-.3 2-.55 1.29-.5 1.19.35 1.18 1.15m-1.07 4.52-2.2.6c-.72.2-1.38.64-2.17.46-.12-2.2-.13-2.21 1.7-2.8.95-.3 1.9-.56 2.93-.86.55.96-.04 1.77-.26 2.6m-6.52-1.6q-2.03.65-4.04 1.33c-1.4.25-.98-.76-1-1.46.14-.8.78-1.04 1.44-1.23q1.83-.53 3.7-1c1.27-.32 1.28-.29 1.47 1.28-.22.81-.94.87-1.57 1.08m.63 3.36a18 18 0 0 1-4.96 1.6c-.93.13-1.45-.18-1.24-1.28.06-.31.3-.7.24-1.05.44.12.88-.37 1.32-.48 1.68-.12 3.16-1.02 4.82-1.26.53.5.08 1.17.28 1.72-.15.26-.24.65-.46.75m80.25-28.89-.53-.01c-1.19.94-2.63.83-4 .88-.54.02-.22-.54-.2-.86l-.44-.05c-.84.8-1.5 1.96-2.98 1.46l-.64-.01c-.63 1.03-1.62 1.38-2.77 1.4l.01-.03-.11-.07.1.1c-.22.33-.43.48-.62-.05l-.87-.05a3.2 3.2 0 0 1-1.98 1.7c-2.25.82-4.3 2-6.3 3.32a36 36 0 0 1-8.74 4.08c-6.28 2.02-12.58 3.99-18.64 6.63-.2.09-.45.09-.68.13q-.04.16-.22.15c-.17.02-.43.12-.5.04-.18-.17-.01-.31.18-.38q-.12-.26.13-.39c-.03-.3.15-.6-.03-.9-2.03 3.48-5.79 4.24-9.06 5.76-.2.1-.43.1-.65.14-.4.2-.7.23-.72-.35l.42-2.21-.58-.57-.53 1.36c-.33 1.36-.2 3-2.14 3.33-1.25.9-2.71 1.29-4.23 1.76-.37-.8.11-1.52.04-2.23l-.52-.54c-.08.13-.22.26-.23.4-.4 3.21-2.71 3.97-5.41 4.22.14-1.25 1.63-.87 2.13-1.7-.47-.58-1.64.63-1.72-.68-.05-.93.1-1.84 1.3-2.04.37-.06.72-.23 1.07-.35l2.1-.57c.68-.2.65.33.76.72l.52.54q.19-.04.34-.12c-.07-1.93 1.4-2.04 2.72-2.32-.5-1-1.56.23-2.11-.52.34-1.88.34-1.88 1.93-2.55 1.54.06 2.86-.79 4.34-.97l.05-.57q-2.43.21-4.67 1.11c-.52.14-.98.14-1.2-.48l-.52-.1c-.12.77-.52 1.2-1.32 1.36-1.27.26-2.52.62-3.78.95-.89-1.16-.47-2.35-.1-3.54l-.8-.07-.48 3.6c-1.2 1.03-2.74 1.04-4.18 1.36-2.5.55-4.88 1.49-7.37 2.09-.68.16-1.01.02-1.05-.69h-.74c-.15.58-.22 1.2-.97 1.38-1.17.3-2.31.62-3.73 1 .21-1.58-.05-3 1.4-3.83v-.47c-.75-.23-.4-.85-.48-1.32l-.62-.12c-.44.66-.2 1.7-1.17 2.05l.39.9q-.03.24-.08.46c-.63 2.65-.63 2.65-3.11 3.4-.8-.46-.12-1.1-.21-1.65l-.67.04c-.23.92-.2 2-1.4 2.34v.5c.52.02.92.2.76.81-.14.55.01 1.3-.77 1.5-.58.15-1.19.22-1.78.33-.13-1.78-.13-1.78 1.78-2.64v-.5c-.14-.01-.3-.07-.44-.03-1.25.32-1.25.33-1.18-.93l.05-.9-.67-.01c-.42 2.83-.61 2.99-4.3 3.26-.17-1.59.27-2.79 2.02-3.16l-.98-.24q-.34 0-.69.05c-.68.13-1.42.31-1.84.82-.6.73.9.63.69 1.37-.1.35 0 .76 0 1.14-.56 1.22-1.86 1.01-2.83 1.45-.41-.4-.82-.8-.93-1.4l-.5-.12.08 1.41c.23.43.01.63-.38.74-1.38.57-2.85.54-4.3.54-3.31 0-6.54.53-9.7 1.5-3.95 1.22-7.92 2.36-11.69 4.08a14 14 0 0 1-5.76 1.34q-.45.24-.92.1a77 77 0 0 1-12.88 1.4c-1.03.41-2.15.19-3.2.4-.2-.28-.26-.56-.03-.86l1.87-.66 1.29-.16c4.47-1.12 8.8-2.5 12.72-5.1a5.3 5.3 0 0 0 2.66-4.66q.33-5.64-.76-11.18c-.32-.4-1.04-.66-.5-1.38-.18-1.9-.58-3.77-.67-5.68-.14-3.03-.2-3.04-3.3-3.46q-5.32-.72-10.57-1.85l-5.07-.03c-.78.34-1.63.48-2.45.47a5.7 5.7 0 0 0-4.85 2.5c-.98.95-1.3 2.14-1.46 3.46-.41 3.72-.1 7.42.26 11.11q.31.9.17 1.85.22 1 .48 1.98c.88 3.04 1.02 6.31 2.79 9.08.2.97.87 1.72 1.25 2.6l1.45 1.12.06.69c-.75-.33-1.65-.19-2.32-.76a17 17 0 0 1-10.32-7.19 13 13 0 0 1-2.04-8.37c.54-7.37 2.63-14.15 8.34-19.36 2.61-2.4 5.3-4.7 8.36-6.46a214 214 0 0 1 28.16-13.6c1.42-.56 2.83-1.2 4.4-1.3.53-.5 1.2-.38 1.84-.33 2.8-1.17 5.77-1.35 8.76-1.4q.44-.23.92-.04 2.3-.41 4.6-.04.47-.22.93 0c1.52-.32 3.03-.05 4.52.12q3.28.35 6.57.42l-.12-.47-8.67-1.91c-.15.01-.3.06-.44.03-.34-.06-.86.07-.96-.32-.13-.57.43-.69.83-.86 6.88-5.26 13.37-11.02 20.77-15.58a57 57 0 0 1 17.23-7.27c.44-.1.87-.29 1.3-.44 2.02-.04 3.74-1.3 5.74-1.44q0-.18.19-.26c-1.9-.16-3.74.52-5.63.44l-.77.45-.4-.11-.53.01c-.67.53-1.43.61-2.24.46l.02-4.94-.04-1.1c-.68.07-.69.07-1.84 1.43h-.74c.24.7.48.42.72.03.88-.05 1.16.44 1.2 1.25.04 1.13.16 2.25.24 3.38-.55.66-1.43.42-2.1.76-.38-1.78-.14-3.59-.22-5.38l-.88.02q-.03.2-.12.38l.02.98q.38 2.01.33 4.07c-1.55.77-1.6.78-1.86-.67-.17-.96-.18-1.94-.25-2.9-.1-.32-.49-.6-.13-.97-.1-.46-.2-.93.02-1.39-.41-.25-.44-1.01-1.15-.85l-.18.85c.29.27.54.55.39 1l-.04 1.21c0 .34.48.64.1 1.02q.1 1.03.25 2.06c.22 1.28-.35 1.86-1.6 1.89l-1.3.72c-1.08.43-1.93 1.45-3.25 1.28 0-.37.07-.75 0-1.1-.22-1.36.03-2.48 1.37-3.15.26-.13.05-.37.06-.56-.52.16-1.04 1.02-1.55.29-.7-1 .2-1.48.94-1.93l.12-.57c-.42.06-.94.46-1.23.01-.38-.56-.44-1.24.18-1.77-.33-.5-.82-.43-1.3-.38-.13.29-.52.46-.38.86.96 1.6.97 1.62-.56 3.25-.46-.14-1.01-.19-1-.88-.47.14-.42.7-.76.94.03.61-1.03 1.06-.27 1.79.8.77.33 1.37-.27 1.94l-.06.6c.49-.17.85-.12.89.5l.07 1.3c.22.27.53.3.84.3 0-.68.06-1.36 0-2.03-.05-.8.3-1.28.98-1.6.58-.29 1-.28 1.14.47l.3 1.78c-.7 1.4-1.27 1.72-2.42 1.38-.31 0-.62-.03-.84-.29l-.95-.15c-.26-.44-.96-.72-.5-1.41l-.5-.1c-1.45-.02-1.63-.17-1.42-1.24l-.43-.14c-.42.24-.85.17-1.29.07-1-.64-1.8-1.72-3.2-1.4.13-1.08-.6-1.08-1.35-1.03l-.04.14-.98.04-.01 1.52c-.79.9-1.66.22-2.5.13l-.33.4c.33.4 1.17.32 1.04 1.14 1.13-.26 2.1.6 3.22.46.31.58.75.79 1.36.47-.24.34-.01.86-.4 1.14.38.17.75-.1 1.1-.07.63.05 1.25.24 1.04 1.12l.35.33c.66-.33 1.26-.24 1.89.16.28.18.62.6 1 .23-.28.5.26.57.55.78-.62 1.04-1.36 1.86-2.75 1.42-.37-.83-1.77-.66-1.79-1.84l.53-.4.57-.35-.35-.33-.57.33-.5.35a3 3 0 0 1-1.55.35c-.12-.38-.23-.76.03-1.13h-.04c.35-.22.67-.47.47-.97-.25.28-.52.55-.48.97l-1.84.18v.96l-.22.01h-.22c-.9.42-1.45 1.75-2.78 1.03l-.06.86c-.1.5-.53.72-.84 1.04-.21.22-.41.45-.06.71h-.08c-.52-.49-1.22.23-1.74-.25l-.07.84a4.6 4.6 0 0 1-1.93 1.86c-.94.58-1.98.64-2.63-.57l-.95-.04q-.67.24-1.36.05c-.86-.07-1.86.08-1.89-1.24-.54.46-1.1.84-1.86.52-.67-.29-.4-.68-.15-1.09 1.08-.63 1.58-2.17 3.18-1.99.4.05.75.08.84.57q.2-.08.42-.1c.44.12.88.23.9.82l.42-.36c.34-.44.84-.45 1.33-.49-.1-1.36.74-1.94 1.89-2.26l.14-.52v-.67l-.3-.55c-.51.29-.99.69-1.64.6l-.93-.18c-.06-.54-1.23-.68-.58-1.44.5-.58.89-1.5 1.98-1.05.56.23 1.2.22 1.68.63-.06-.99-1.02-1-1.66-1.54.68-.84 1.08-1.97 2.44-2.02-.01-.47.29-1-.11-1.42.55.36.7-.06.85-.5q.16.13.36.04l.9-.1c-.14-.78.92-1.38.33-2.23-.6.34-.72-.3-1.05-.52-.16-1.02.03-1.88.86-2.61.67-.59 1.22-1.31 1.83-1.98 1.46.89.87 2.07.46 3.22q-.51-.04-.47.46-.5-.04-.46.46-.5-.03-.46.46c-.36-.03-.54.21-.72.47.17.07.36.23.5.2.3-.1.28-.38.24-.64.16.04.28.23.49.02.2-.2.02-.33-.02-.48q.78.33.46-.46.7.3.52-.31c.22.24.7-.06.87.27h.6c-.42-.83.57-1.46.3-2.27q.74.27.48-.45.72.25.46-.47.72.25.46-.47c.77.17 1.28.69 1.69 1.46a11 11 0 0 1 .58-3.76q.72.25.5-.44c.45.35.9-.38 1.34-.03v-.27c.35.23.55-.08.8-.23q-.12-.68.17-1.31l-.05-.65c-1.23-.74-1.03-1.89-.88-3.02 1.22-.76 1.82-2.2 3.16-2.82l.85-.04c-.25-.88.28-1.5.72-2.14l.44-.48.44-.48.7-.66c1.06.23.8 1.26 1.16 1.91q.21-.02.41.03c-.07-.53.01-1.14-.24-1.55-.6-1.03-.07-1.71.5-2.44l-.35-.18c-.37.02-.73 0-.82-.47-.14-.64-.27-1.28-.63-1.84.06-1.9 1.34-2.84 2.82-3.63h.75c-.19-.58-.3-1.16.18-1.66.8-.85 1.3-1.96 2.33-2.61q.12-.39.52-.38c1.57-2.27 2.07-2.45 4.68-1.9q3.27.68 6.62.8c5.9.23 11.76.92 17.63 1.53 2.31.23 4.6-.07 6.86-.59a98 98 0 0 1 9.49-1.85c1.67-.21 3.32-.6 4.89-1.26 1.21-.5 2.5-.74 3.8-.9q4.14-.52 7.89-2.38c2.8-1.4 5.97-2.03 8.6-3.84.59-.4 1.17-.12 1.75.08q2.77.96 4.87 3c.66.64 1.36 1.27 1.87 2.02 3.52 5.2 7.88 9.62 12.64 13.65 4.63 3.93 7.24 9.08 9.05 14.71 1.36 4.24 2.57 8.52 3.8 12.8.5 1.68.93 3.4.98 5.17q.24.44.12.93c.5 1.19.53 2.42.4 3.68q.24.93-.05 1.85c.08 1.1.1 2.18-.34 3.23.04 1.4.49 2.87-.47 4.16-.62-.22-1.09-.47-.73-1.3.38-.91.73-1.84.7-2.86-.63.5-.64 1.29-.92 1.95-.67 1.6-.54 2.03-2.75 1.63h-.93c-.61.04-1.22.03-1.82.12-.4.06-1.05-.15-.62.84.28.66-.36 1.45-1.35 1.4-.75-.03-1.53.14-2.25-.2l-.09.6c.83-.13 1.64.02 2.45.18.81.3.4.7.08 1.1a5 5 0 0 1-1.48 2.94c.54.65 1.08.23 1.63.03-.11-1.3.8-2.25 1.2-3.37.16-.41.56-.52.95-.44.8.17 1.7-.08 2.38.57l.46.12c.7-.28 1.42.03 2.12-.04q.15.17.24.37c-.67 1.6-1.7 3.05-1.98 4.83-.2 1.4-1.24 1.28-2.26 1.05-.21-.4-.08-.91-.46-1.24h-.6l.03.07c-1.5 1.49-3.08.65-4.66.2-1.15.16-2.3.19-3.44-.13l-.1.73c1.02.17 2.18-.3 3.06.63 1.28-.18 2.55-.31 3.7.49 1.14.57 2.52-.33 3.6.57.12.6-.27 1.02-.42 1.51-.32 1.06-1.19 1.25-1.97.83-.7-.39-1.43-.23-2.1-.5-1.28.4-2.48-.06-3.7-.39-.6.24-1.19.1-1.79-.01q-.5.13-.98-.13c-.77.11-1.52-.07-2.27-.22l-.93-.12c-1.45.22-2.9-.06-4.34-.12-1.66-.06-3.32-.2-4.96.39 2.31.56 4.71.19 7.01.75a3.6 3.6 0 0 1 1.83.17 9 9 0 0 1 3.23.15 6 6 0 0 1 2.76.36c1.52-.2 3-.19 4.8.66-1.88.9-3.34.43-4.8-.15-.95.43-1.87.32-2.78-.12-.41.3-.86.27-1.32.16l-1.9-.43a3.4 3.4 0 0 1-1.83.16l-1.7.07c.37.52.94.31 1.44.42.56.13 1.6-.27 1.44.82-.13.8-.25 1.9-1.51 1.92-.97.02-1.96.1-2.91-.19-1.83.37-3.68.08-5.5.22l.1.84H356c.3-.29.68-.34 1.06-.3.88.1 1.75-.12 2.66.3.62.3 1.45-.5 2.28-.31.5.11 1.22-.12 1.26.62.03.6-.32 1.17-.9 1.48-.18.1-.46.02-.66.1-1.03.42-1.9-.78-3.07-.13-.88.48-2.08.19-3.14-.03-1.49.45-3.24-.19-4.55 1.05.99.18 1.97.1 2.95 0 .76-.06 1.12.25 1.17.98-.62.26-.7.87-.9 1.4l.52-.01c.49-.36.46-.87.4-1.39.65-1.04 1.58-1.56 2.81-1.31 1.42.29 2.85-.37 4.29.11.22.97-.65 1.66-.7 2.57.54.13.59.53.54.99.53-.08 1.07-.08 1.54-.38.16 1.35-1.03 2.29-1.1 3.57-.62.8-1.32 1.29-2.27.45M196.4 229.82a58 58 0 0 1-3.08-16.58 2.4 2.4 0 0 1-.03-1.4v-1.37q-.02-3.04-.07-6.08c0-.5.24-.85.48-1.23.68.31.5.95.35 1.39-.62 1.95-.3 3.95-.46 5.92l.17.42h.67l.36-6.12c.04-.74.31-1.5-.1-2.21a3 3 0 0 1 2.08-1.3c4.57-.68 9.14-.83 13.7.24 2.23.52 4.49.99 6.79 1.06.83.03 1.28.2 1.24 1.15-.14 4.25.9 8.36 1.39 12.53.26 2.28.16 4.59.55 6.86.22 1.27-.34 2.24-1.44 2.89-2.3 1.35-4.53 2.82-7.2 3.52q-3.66.94-7.07 2.65c-1.85.51-3.69 1.22-5.64.47-.4-.01-.72-.14-.84-.57-.28.02-.38-.16-.46-.37q-.53-.3-.48-.9c-.52-.11-.54-.7-.9-.97m71.95-74.22c-.04-.75-1.43-.83-.91-1.85 1.2-.45 1.83.62 2.69 1.05.6 1.16.51 1.3-.85 1.3-.21-.36-.47-.62-.93-.5m-5.06-2.8c-.34-.5-.79-.69-1.37-.47-.06-.62-.6-.72-1.03-.91s-.41-.53-.36-.9q.7-.08.89-.76c.44-.31.96-.05 1.42-.18.55 1.08 1.68 1.36 2.63 1.9l.17.69c.87-.05 1.5.27 1.8 1.12-.78.5-1.55.76-2.3-.06a2.8 2.8 0 0 0-1.85-.44m9.25-5.03c.54.13 1.46-.42 1.38.78-.04.68-1.03 1.6-1.65 1.53-.5-.06-.49-.46-.54-.84-.09-.7.71-.89.81-1.47m104.62 37.8c-.75.65-1.4 1.7-2.7.55-.14-.61.42-1.22.65-1.9.22-.65.47-1.22 1.42-1.16 1.14.09.83.98 1.08 1.56-.66.06-.54.52-.46.96m.1-3.28c-.44-.07-1-.07-.98-.66.01-.73.63-.68 1.17-.67.37.09 1-.1.94.59-.05.62-.53.82-1.14.73m-13.4 5.18c.41-.13.89-.05 1.33-.07-.33 1.11-.35 2.43-1.8 2.83-.3-.14-.91-.08-.77-.57.24-.8.21-1.85 1.24-2.19m5.49 6.66c-.45.4-.97.07-1.45.14-.6-.03-1 .7-1.67.4-.4-.01-.8-.06-1.05-.43-.55.41-1.14.7-1.86.55.53-1.59.77-3.32 2.3-4.4-.47-1.26.42-2.14.9-3.14a.3.3 0 0 1 .05-.3l.43-.69-.01-.13-.02-.55-.48-.09c-.57.4-.56 1.23-1.2 1.58-1.57-.44-1.64-.54-1.1-1.8.17-.39.42-.76.63-1.14.34-2.17.34-2.17 2.28-2.38.33.07.68.1.85.47q1.23-.6 2.44.03l.85.15c1.22-.18 2.33.21 3.62.61-1.04 1.16-.37 3.62-2.98 3.26-.3.2-.57.41-.67.77 1.6.13 1.7.22 1.23 1.4-.28.69-.5 1.45-1.24 1.82l-.01.36c.08 1.06-.87 1.75-.97 2.75zm1.84-.27c-.11-1.1.44-2.04 1.04-2.8.65-.84.67.07.8.5-.43.17-.48.53-.46.92-.5.25-.5.76-.63 1.21zm4.85-.35-.15.03-.09-.13c-.96.94-2.12.46-3.21.44-.05-.45.47-.9.03-1.35.65-.05.63-.44.45-.91.38.16.37-.2.46-.4l.46-1.07-.52-.17c-.74-.29-.74-.37 0-1.42l-.1-.08.07-.1c.12-.52.2-1.06.96-.88.3 0 .73-.13.87.02.53.58 1.05.8 1.78.4.08-.05.34.23.52.36l.55.1 1.2.14.2-.88-1.08-.64q-.23 0-.44-.09c-1.32.2-.66-.8-.8-1.32.47-.14.47-.52.45-.9.48-.07.34-.86.93-.8.78-.35 1.53.4 2.32.07a5.4 5.4 0 0 1-1.38 3.68l-.2.88c-.12 1.92-1.16 3.43-2.21 4.93-.27.38-.66.7-1.07.1m15.7 11.47q-2.14.84-4.43 1.17l.03-.73 4.03-1.64c.6-.24 1.5-.85 1.8-.1.43 1.05-.8 1.06-1.43 1.3"/><path fill="#222" d="M394.48 157.9c.05-.05.15-.11.14-.15q-.05-.15-.14-.3l-.16.17zM84.4 320.2l-.02.04.05.01-.01-.05zm-.45.45h-.03v.05h.03zm37.33-110.66-.04-.01.01.05zm47.93-16.17-.13-.11.1.12zm65.02-99.4h-.03v.03zm4.97 64.3.1.08v-.01zm-58.7-60.23.01.03q0-.03.04-.05-.05 0-.05.02m.05-.02.09-.03a.1.1 0 0 0-.1.03m185.1 91.93v.02zm-47.44-88.76h-.03v.03zm-.46.46h-.04v.03zM141.52 245.54l.06-.02.01-.03h-.04q0 .03-.03.05m178.94-143.9v-.02zm-.46.46v-.02zm28.64 94.28q.58-1.6 1.24-3.18c.18-.46.26-.87-.32-1.1q-.1.65-.7.93c0 .3.07.61-.22.83l-1.5 3.63.86.05q.27-.2.52-.06c-.34-.37 0-.75.12-1.1m-142.55 58.78v.07l.03-.04zm-29.04-77.92v-.02h-.02v.01zm-34.08 68.67v.05h.01zm-3.71 21.27q.03-.5-.46-.47.03-.49-.46-.46.04-.5-.46-.46.04-.5-.46-.47.01-.47-.46-.46c-.17-.43-.34-.85-.9-.48.16-.46-.07-.53-.45-.45q.08-.06.08-.12-.03-.17-.12-.33l-.73.02c.15.29.36.49.7.47q.02.45.47.46c.19.4.34.85.9.5-.16.45.04.56.47.44q-.21.67.46.46-.21.68.46.46c-.15.45-.03.64.46.46-.18.48-.07.69.46.47-.35.92.45 1.29.93 1.8l.5-.46c-.38-.55-.62-1.23-1.39-1.38m46.06-35.93 1.04-.03.01-.52-.57-.66-.58.37zm-8.15 20.86-.02.03.04.01-.01-.01v.01zm-.57.29c-1.49-.4-1.25-1.66-1.35-2.75a1 1 0 0 0-.38-.07l-.93.1c.1.45-.04.87-.29 1.25a.5.5 0 0 1 .28.27c1.32.46 1.3 1.59 1.33 2.7l-.04.2c.74.02.65 1.1 1.4 1.1.13-.92-.29-1.84 0-2.76q.35 0 .53-.3c-.29-.14-.44.02-.55.26m136.26-147.81-.2.3q.15 0 .29.02zM81.4 291.69c.94.27 1.34-.28 1.66-1.44-.91.16-1.66.13-1.85 1.08-.02.1.1.33.2.36m92.67 13.55c-.77-.38-1.36-.73-1.98-.17-.09.08-.06.5.05.57.67.52 1.22.12 1.93-.4m-85.04-21.95c.2-.07.44-.14.3-.53-.08-.24-.33-.35-.64-.32-.37.03-.54.3-.41.59.11.27.44.37.75.26m176.58-69.98-.68.34c-.33.74-1.33.67-1.67 1.4h.01l-.9-.17-.89.3.05 1.78h.14l.15-.01c0-1 .87-1.33 1.47-1.88.29-.02.62.05.86-.08 1.43-.73 1.15.27 1.1 1.05l.56-.02c.2-2.4 2.13-2.35 3.79-2.67l.01-.71-3.1.64zm29.18-2.85c-.15-.25-.3-.47-.62-.5l-.4 2.38.53.1c.52-.57.28-1.33.49-1.98m-109.41-86.67c2.3-2.6 4.97-4.75 7.9-6.6a57 57 0 0 0 5.9-4.37 13 13 0 0 0 2.9-3.24l3.48-5.67a.8.8 0 0 0 .3-.7c.14-.13.29-.3.12-.46-.18-.17-.32.02-.43.17-.4.22-.73.5-.88.96a22 22 0 0 0-2.74 3.97 16 16 0 0 1-5.25 5.68l-6.06 4.17c-2.22 1.53-4.3 3.2-5.8 5.5q.14.42.56.58m-24.21 38.06c1.22-2.48 2.51-4.92 3.68-7.43.98-2.09 2.01-4.27 1.67-6.61a9.7 9.7 0 0 1 1.44-6.8l-.56-.62q-.33.61-.7 1.19c-1.2 1.7-1.78 3.5-1.28 5.64a7.4 7.4 0 0 1-.32 3.86 32 32 0 0 1-2.56 5.9 52 52 0 0 0-2.75 5.83c-.26.65-.67 1.31-.08 2.4.57-1.31.97-2.35 1.46-3.36m-29.45-2.88c-1.54.31-3.17.12-4.67.94 2 1.14 3.23.9 4.67-.94m42.1-53.66c-.47-.16-.75.05-.92.47-.3.03-.48.22-.6.48.32 0 .58-.1.6-.47.45.1.79.02.92-.48.35.21.43.54.43.91l.61-.1c-.12-.5-.12-.99.19-1.43l-.47-.44c-.4.25-.92.41-.76 1.06"/><path fill="#222" d="M175.93 103.26c-.58.15-1.11.37-1.34 1l.47.43 1.2-1.06 1.07-.8-.4-.41c-.44.15-.75.46-1 .84M137.24 248.3c0 .06.09.15.14.15.36.03.55-.19.7-.47l-.25-.22c-.3.07-.61.14-.6.54m22.14-83.08c-.51.34-.49.89-.6 1.4l.7.02c.07-.48.48-.98-.1-1.42m17.97-62.38.78-.59-.34-.42-.85.59zM232.38 97l-.22-.93-.01-.06c-.12.38-.18.75.23.99m0 0v.04l.04.02v-.04zm-1.33 13.8.38-.37q-.34.04-.38.38m0-.01-.04.05h.01l.01.02zm.42-.41-.04.04.06-.01z"/><path fill="#222" d="M231.02 110.86v-.01q-.04.02-.06.05l.08-.03zm-.45.47.02-.06-.04.04zm.02-.06.37-.38a.5.5 0 0 0-.37.38m-.02.06-.02-.02-.46.46.02.02z"/><path fill="#222" d="m230.1 111.77-.12.16.13-.14zm-52.32-9.94.34.42.4-.34-.3-.4zm50.9-4.31q-.3.1-.4.4.36-.05.4-.4m.02-.05-.02.05.04-.01zm-.43.49.01-.04-.04.01zm-.17.08q-.03.04-.03.12l.13-.17zm.14-.11-.04.06.07-.03zm.46-.46.02.04.03-.04zm.25-.26-.2.26c.15 0 .37.06.2-.26m-.31 12.19q.12.12.27.23l.45-.43-.3-.29z"/><path fill="#222" d="m228.09 109.92.66.06q.1-.16.15-.35l-.27-.22zm3.86.02q.36-.06.5-.4l.5-.43 1.27-.52c-.13-.37-.45-.5-.8-.57-.42.11-.62.42-.75.8l-.41.5v.01c-.22.14-.39.3-.33.6q-.44.02-.44.45.37-.08.45-.44m-.47.45.02.03v-.04zm-59.95-3.23q-.45.02-.46.45c-.46-.05-.8.15-1.08.5.44-.02.85-.08 1.1-.5l.44-.43c.33-.09.47-.32.5-.64-.28.12-.5.28-.5.62m-38.9 99.88q-.55.08-.85.53c-.27.28-.93.52-.39.96.31.25.61-.25.77-.59q.5-.15.74-.62c.1-.11.3-.3.28-.32-.19-.3-.37-.13-.55.04m222.58-84.72c-.14-.28-.51-.27-.83-.2-.37.1-.75.15-1.12.26-3.43 1-6.82.74-10.2-.28a76 76 0 0 1-4.35-1.44q-4.43-1.65-8.73.29c-1.81.82-3.68 1.56-5.4 2.53-3.68 2.07-7.1 2.24-10.26-.92a.3.3 0 0 0-.24-.2l-.49.04q0 .4.39.5a6.4 6.4 0 0 0 5.63 3.34c1.5.03 2.85-.54 4.17-1.17a207 207 0 0 0 5.78-2.84 10 10 0 0 1 8.86-.32q3.39 1.45 7.02 2.14c3.18.6 6.26.35 9.25-.9.36-.16.74-.37.52-.83m-77.65 10.13c1.47-.96 3.16-1.3 4.81-1.74-.43-.85-1.12-.5-1.75-.36-1.16.27-2.28.73-3.48.78-.5.54-1.12.65-1.8.53q.06.25-.2.27-.27-.02-.18-.29c-1.35.26-2.03 1.38-2.9 2.27q-.53.3-.46.92c-.57-.18-.95.22-1.37.48l-.48.9q-.4.06-.46.46c-.4.18-.71.41-.47.92-.5-.27-.74.06-.96.44l.61.05q.38-.09.36-.48c.45-.16.66-.43.47-.91q.52.04.46-.46c1.19.3 1.43-.67 1.86-1.38q.54-.3.46-.93c1.94-.06 3.54-1.41 5.48-1.47"/><path fill="#222" d="M275.3 131.66h.03v-.02zm9.2 4.62q-.42-.06-.53-.46c.3-1.07-.25-2.2.26-3.26l-1.12-.04c-.86.54-1.87.67-2.82.87-.59.12-1.07-.02-1.66.53-.9.82-1.05-.12-1.06-.86a3.5 3.5 0 0 1-2.65 2.44c-.87.23-1.82.53-2.49 1.1-.77.64.21.5.49.65.57-.37 1.15-.69 1.87-.6.73-.28 1.26-1.03 2.18-.94l.35 1.48h.64c-.22-2.23-.22-2.23 1.94-2.33.22-.56.75-.67 1.23-.85 1.8-.7 1.79-.7 2.14 1.2.03.2.2.36.32.55q-.05.56-.45.96.02.18 0 .38c.75.82.36 1.75.28 2.66.21.58.08 1.38.96 1.54-.2-.75.28-1.31.52-1.94-1.33-.72-.89-1.73-.45-2.74l1.68-.23c.4.54.14 1.17.33 1.72l.84-.07c-.27-.94.07-1.87.03-2.81l-.97.08c-.5.54-1.43.28-1.86.97m4.08 1.55q.04.24.26.31c.86.1.78.7.72 1.3l.5-.01.08-.45c-.47-.77.53-1.15.68-1.77-1.02-.22-1.6.27-2.24.62m68.79-15.4c.14.02.3-.05.44-.08l-.02-.77c-.15 0-.31-.04-.44 0-.65.24-1.93-.03-1.8.72.15.96 1.18 0 1.82.13m-64.24 14.05c0 .02.35.12.54.18l.07-.5c-.2.12-.54-.01-.6.32m-1.56.41c.1.06.2.17.29.17s.17-.11.26-.18q-.2-.08-.38-.12c-.05 0-.11.08-.17.13M162.86 252.21q.06.19.16.36c.05-.05.15-.11.14-.15q-.06-.18-.16-.36c-.05.05-.15.12-.14.15m16.31 6.66a.7.7 0 0 0-.77-.04l.06.77zm18.16-28.11v.03zm.46.9v.03l.03.01zm-7.26-17.74.1.06v-.12zm114.26-.23c-.6.06-.47.56-.55.93.86.1.6-.48.57-.93.62-.26.46-.92.7-1.37h-.69c-.06.46-.21.9-.03 1.37m7.37-5.07v.02zm-.1.2c.03 0 .06-.11.1-.18q-.32.15-.1.18m-.68.97q.02.08.1.15l.12-.14-.1-.14c-.05.04-.12.08-.12.13m-.55 1.59c.38-.17.64-.62.3-.77-.62-.3-.77.26-.8.78l.02.44c.39.12.38-.24.48-.45M206.3 254.87q-.07.15-.17.29c.2.01.35-.02.18-.29"/><path fill="#222" d="m206.08 255.16.04.03.02-.03zm-87.98-68.97-.53-1.4c-.15-.4-.37-.32-.62-.1q.07.8.19 1.59c.04.26-.17.7.26.73.2 0 .43-.35.65-.54a.3.3 0 0 0 .04-.28m-1.51-6.63.14 3.62c.56-1.23.67-2.45-.14-3.62m253.27 4.64q.22-.03.44-.02.2 0 .36-.06l.6-1.72-.85-.15zm-98.7-43.8-.01-.5c-.3.3-.65-1-.8-.05-.13.81-.82 1.22-1.02 1.93.9.11 1.6-.36 2.32-.8q-.43-.14-.49-.59m18.58 80.47c.05.04.11.13.16.12q.2-.04.39-.1l-.24-.18zm-168.16-10.8-.26-.03.16.26zm-.29-.08-.03.05h.06zm59.95-36.38h.03v-.03zM378.56 184l.02 1.57c.72-.54.65-1.06-.02-1.58m-76.43-75.29.15.3c.05-.05.14-.1.13-.14q-.04-.15-.13-.3zm11.67-5.04.16-.15-.1.02q-.05.05-.06.13m-50.96 79.47c.59-1.13 1.5-1.29 2.67-1.28 1.8 0 2.75-1.08 3.1-3.16-.32-.03-.57.14-.76.37-.94 1.18-2 2.05-3.66 1.95-.7-.03-1.34.4-1.74.99-.69.98-1.66 1.23-2.77 1.33a9.8 9.8 0 0 0-6.22 3.07c-.66.5-1.4.93-1.97 1.53-.64.7-1.36.93-2.24.89-3.07-.15-5.89.77-8.59 2.12a17.2 17.2 0 0 1-12.26 1.27c-2.77-.7-5.58-.96-8.42-.58l-.05.75c2.6-.06 5.2-.04 7.74.67 1.7.48 3.44.7 5.2.88h.91c2.45-.33 4.82-.94 7.05-2.04 2.72-1.35 5.54-2.26 8.64-1.99.94.08 1.97-.03 2.5-.86.65-1 1.75-1.5 2.41-2.44 2-1.31 4.08-2.37 6.56-2.36.8 0 1.52-.39 1.9-1.1m6.53 22.76.19-.11q0-.39-.03-.76zm-1.29-9.24c.15 1.13.4 2.26.47 3.4.12 1.7.83 3.28.98 4.97.5-3.19.4-6.33-.78-9.45-.77.3-.72.7-.67 1.08m4.42 10.57.06 3.63.83.01c.32-3.04.28-6.07-.16-8.58zm9.22 4.94c-.39.17-.86.2-1.14.58-1.15-.2-2.19.33-3.28.52-.45.08-.55.45-.56.85 1.3-.36 2.7-.48 3.84-1.35h1.16q.05-.17.03-.32zM169.4 250.08c-.2.08-.42.1-.63.14l-.42.36-.09.9.5.46h.23l.23.03q.18-.04.38-.03c-.04-.53.18-.95.4-1.43.35-.73-.14-.61-.6-.43m72.94-83.13.02-.14-.13.05zm125.13 18.08 1.87.08q.05-.2.05-.4l-1.75-.21zm.5-2.48q-.7.38-.47 1.16c.62-.2.52-.7.47-1.16M267.45 143.6q-.45 0-.47.46c-.62-.05-.98.41-1.3.8-.55.69-1.07.32-1.62.1.27.56.2 1.12-.03 1.68l-.47.45-.46.48c-.15.14-.38.32-.18.52s.39-.02.53-.19l.46-.46.46-.46c1.13-.74 2.16-1.57 2.62-2.9q.47 0 .47-.47.46 0 .46-.47-.47 0-.48.46m4.08-6.27c-.05-.04-.1-.12-.15-.12s-.1.07-.15.11l.22.15zm-1.61.9c.3-.05.78-.23.65-.42-.27-.43-.63-.12-.9.17-.09.1-.27.27-.24.3.17.26.34.11.49-.05m-32.42-36.58.42-1 .01-.67-.9.27-.1.1-.14-.03c.01.54-.23.95-.61 1.3q-.68.19-.74.86l-.6-.13c.04-.79-.36-1.44-.66-2.13-.8-1.8-.81-1.79.6-3.13l-.79-.08c-.52.12-1.03.53-1.56.05.08.66-.3 1.21-.49 1.8q-.46.02-.46.48.48.01.47-.46c.79.03 1.07.57 1.36 1.2.38.87.5 1.85 1.17 2.59.07.52-.24.89-.48 1.29l-1.14-.49a3 3 0 0 1-.93 2.22c-1.02 1-2.17 1.91-2.85 3.23l.3.28c1.25-.7 2.06-1.89 3.09-2.83.4-.36.7-.5 1.07-.02l.32-.31a2.6 2.6 0 0 1 .4-1.66l.15-.53q.15 0 .3.09l.47.03c.24-.44.43-.9.29-1.41.85.36 1.13-.42 1.59-.84q.2-.06.43-.06-.23.48.17.84l.7.1c-.16-.42-.16-1-.86-.95m120.19 88.17.45.39c.35-.55.85-1.06.48-1.82-.67.28-.82.84-.93 1.43m-162.44 32.53.64.14c-.36-2.1-.36-4.3-1.29-6.28-.1 2.08.39 4.1.65 6.14m57.82-68.23c-.15-.17-.4-.06-.55.12l.3.54c.24-.16.54-.35.25-.66m3.74-4.56c-.37.02-.75-.36-1.12.01.17.64.16 1.25-.3 1.78l.03.04-.04-.04a.6.6 0 0 0-.49.45c-.36.32-1.03.32-1.04 1 .06.94.76.34 1.16.48l.07-.54.2-.6.42-.43c.71-.2.9-1.5 1.96-.95l.33-.4-.32-.77q-.44 0-.86-.03"/></svg>